<svg width="3000" height="3000" viewBox="0 0 3000 3000" fill="none" xmlns="http://www.w3.org/2000/svg">
<g clip-path="url(#clip0_22_37)">
<path d="M845.452 765.722L847.778 781.776C847.889 782.513 848.221 783.187 848.755 783.722C849.289 784.245 849.965 784.602 850.697 784.701L866.713 787.023L850.689 789.353C849.953 789.464 849.281 789.797 848.747 790.332C848.225 790.855 847.869 791.545 847.77 792.278L845.452 808.324L843.126 792.27C843.015 791.533 842.683 790.859 842.149 790.324C841.615 789.801 840.939 789.444 840.207 789.345L824.191 787.023L840.215 784.693C840.951 784.582 841.623 784.249 842.157 783.714C842.679 783.191 843.035 782.501 843.134 781.768L845.452 765.722Z" fill="white"/>
<path d="M845.456 822.143L841.168 792.555C841.121 792.234 840.978 791.953 840.749 791.723C840.595 791.569 840.31 791.359 839.938 791.307L810.402 787.027L839.93 782.731C840.25 782.684 840.531 782.541 840.761 782.311C840.986 782.085 841.133 781.792 841.176 781.491L845.448 751.903L849.736 781.491C849.783 781.812 849.926 782.093 850.151 782.319C850.385 782.549 850.669 782.696 850.966 782.735L880.502 787.015L850.974 791.311C850.654 791.359 850.373 791.501 850.143 791.731C849.918 791.957 849.771 792.25 849.728 792.551L845.456 822.143ZM837.98 787.019L840.492 787.384C841.619 787.538 842.679 788.065 843.538 788.909C844.38 789.758 844.91 790.812 845.088 791.981L845.456 794.513L845.82 792.001C845.978 790.863 846.524 789.769 847.355 788.937C848.185 788.105 849.241 787.574 850.404 787.4L852.936 787.031L850.424 786.666C849.293 786.512 848.237 785.985 847.378 785.141C846.54 784.301 846.006 783.242 845.832 782.073L845.464 779.541L845.1 782.054C844.942 783.191 844.396 784.285 843.565 785.117C842.735 785.949 841.678 786.48 840.515 786.655L837.98 787.019Z" fill="#121212"/>
<path d="M866.717 1231.87L869.043 1247.92C869.154 1248.66 869.486 1249.33 870.02 1249.87C870.554 1250.39 871.23 1250.75 871.962 1250.84L887.978 1253.17L871.954 1255.5C871.219 1255.61 870.546 1255.94 870.012 1256.48C869.49 1257 869.134 1257.69 869.035 1258.42L866.717 1274.47L864.391 1258.41C864.28 1257.68 863.948 1257 863.414 1256.47C862.88 1255.94 862.204 1255.59 861.472 1255.49L845.456 1253.17L861.48 1250.84C862.216 1250.73 862.888 1250.39 863.422 1249.86C863.944 1249.33 864.3 1248.64 864.399 1247.91L866.717 1231.87Z" fill="white"/>
<path d="M866.721 1288.29L862.433 1258.7C862.386 1258.38 862.243 1258.1 862.018 1257.87C861.789 1257.64 861.496 1257.49 861.203 1257.45L831.667 1253.17L861.199 1248.88C861.516 1248.83 861.796 1248.69 862.026 1248.46C862.255 1248.23 862.402 1247.94 862.441 1247.64L866.717 1218.05L871.001 1247.64C871.048 1247.96 871.191 1248.24 871.42 1248.47C871.575 1248.63 871.859 1248.84 872.231 1248.89L901.767 1253.17L872.239 1257.46C871.919 1257.51 871.638 1257.65 871.408 1257.88C871.179 1258.11 871.033 1258.4 870.993 1258.7L866.721 1288.29ZM859.245 1253.16L861.753 1253.53C862.884 1253.68 863.94 1254.21 864.799 1255.05C865.641 1255.89 866.171 1256.95 866.349 1258.12L866.717 1260.65L867.081 1258.14C867.235 1257.01 867.781 1255.91 868.616 1255.08C869.443 1254.25 870.499 1253.71 871.666 1253.54L874.197 1253.17L871.685 1252.81C870.558 1252.65 869.498 1252.12 868.64 1251.28C867.797 1250.44 867.267 1249.38 867.089 1248.22L866.721 1245.68L866.357 1248.19C866.203 1249.33 865.657 1250.42 864.818 1251.26C863.996 1252.09 862.94 1252.62 861.773 1252.79L859.245 1253.16Z" fill="#121212"/>
<path d="M742.607 785.537L748.398 825.488C748.675 827.323 749.502 829.003 750.831 830.334C752.16 831.638 753.837 832.518 755.669 832.772L795.517 838.546L755.641 844.347C753.809 844.625 752.132 845.453 750.803 846.785C749.502 848.089 748.624 849.797 748.371 851.631L742.607 891.554L736.82 851.6C736.543 849.765 735.717 848.085 734.388 846.753C733.059 845.449 731.381 844.569 729.55 844.316L689.702 838.542L729.578 832.74C731.409 832.463 733.086 831.634 734.415 830.303C735.717 828.999 736.595 827.291 736.848 825.456L742.607 785.537Z" fill="white"/>
<path d="M742.611 905.365L734.862 851.885C734.645 850.462 734 849.166 732.987 848.156C731.935 847.122 730.65 846.468 729.277 846.281L675.905 838.546L729.285 830.782C730.705 830.568 731.998 829.918 733.007 828.904C734.024 827.885 734.688 826.566 734.878 825.191L742.595 771.718L750.344 825.198C750.558 826.621 751.207 827.913 752.215 828.928C753.268 829.962 754.553 830.612 755.926 830.802L809.298 838.538L755.918 846.301C754.498 846.515 753.204 847.165 752.196 848.18C751.179 849.198 750.514 850.518 750.329 851.893L742.611 905.365ZM703.491 838.538L729.835 842.354C732.038 842.655 734.099 843.69 735.772 845.338C737.398 846.967 738.43 849.024 738.774 851.302L742.603 877.731L746.417 851.338C746.717 849.127 747.777 847.003 749.403 845.374C751.017 843.757 753.07 842.723 755.344 842.382L781.72 838.546L755.376 834.729C753.173 834.428 751.112 833.394 749.439 831.745C747.809 830.113 746.78 828.056 746.436 825.777L742.607 799.348L738.798 825.741C738.494 827.957 737.433 830.077 735.808 831.706C734.194 833.323 732.141 834.357 729.866 834.698L703.491 838.538Z" fill="#121212"/>
<path d="M1529.77 1574.17L1535.12 1611.13C1535.37 1612.83 1536.14 1614.38 1537.37 1615.61C1538.6 1616.82 1540.15 1617.63 1541.85 1617.87L1578.72 1623.21L1541.82 1628.57C1540.13 1628.83 1538.57 1629.6 1537.35 1630.83C1536.14 1632.04 1535.33 1633.61 1535.1 1635.31L1529.77 1672.25L1524.41 1635.29C1524.16 1633.59 1523.39 1632.03 1522.16 1630.81C1520.93 1629.6 1519.38 1628.78 1517.68 1628.55L1480.81 1623.21L1517.71 1617.84C1519.4 1617.59 1520.96 1616.82 1522.18 1615.59C1523.39 1614.38 1524.2 1612.8 1524.43 1611.11L1529.77 1574.17Z" fill="white"/>
<path d="M1529.77 1686.07L1522.45 1635.57C1522.26 1634.29 1521.67 1633.12 1520.76 1632.2C1519.81 1631.27 1518.65 1630.68 1517.41 1630.51L1467.02 1623.21L1517.42 1615.88C1518.7 1615.68 1519.87 1615.1 1520.78 1614.18C1521.7 1613.26 1522.3 1612.07 1522.47 1610.83L1529.76 1560.34L1537.08 1610.84C1537.27 1612.12 1537.86 1613.29 1538.77 1614.21C1539.72 1615.14 1540.88 1615.73 1542.12 1615.9L1592.51 1623.2L1542.11 1630.54C1540.83 1630.73 1539.66 1631.32 1538.75 1632.23C1537.83 1633.15 1537.23 1634.34 1537.06 1635.58L1529.77 1686.07ZM1494.6 1623.21L1517.97 1626.59C1520.04 1626.88 1521.97 1627.84 1523.55 1629.39C1525.08 1630.92 1526.05 1632.86 1526.37 1635L1529.76 1658.44L1533.14 1635.03C1533.42 1632.96 1534.42 1630.96 1535.95 1629.43C1537.46 1627.92 1539.39 1626.95 1541.52 1626.62L1564.93 1623.22L1541.56 1619.84C1539.49 1619.55 1537.56 1618.58 1535.98 1617.03C1534.46 1615.5 1533.49 1613.57 1533.16 1611.43L1529.77 1587.99L1526.39 1611.4C1526.11 1613.48 1525.11 1615.47 1523.58 1617C1522.07 1618.52 1520.14 1619.49 1518 1619.81L1494.6 1623.21Z" fill="#121212"/>
<path d="M1082.45 888.574C1089 888.574 1094.31 883.251 1094.31 876.685C1094.31 870.119 1089 864.796 1082.45 864.796C1075.89 864.796 1070.58 870.119 1070.58 876.685C1070.58 883.251 1075.89 888.574 1082.45 888.574Z" fill="white"/>
<path d="M1082.45 890.556C1074.81 890.556 1068.6 884.334 1068.6 876.685C1068.6 869.037 1074.81 862.815 1082.45 862.815C1090.08 862.815 1096.29 869.037 1096.29 876.685C1096.29 884.334 1090.08 890.556 1082.45 890.556ZM1082.45 866.778C1077 866.778 1072.56 871.22 1072.56 876.685C1072.56 882.15 1077 886.593 1082.45 886.593C1087.9 886.593 1092.33 882.15 1092.33 876.685C1092.33 871.22 1087.9 866.778 1082.45 866.778Z" fill="#121212"/>
<path d="M1149.69 809.315C1154.06 809.315 1157.6 805.766 1157.6 801.389C1157.6 797.011 1154.06 793.463 1149.69 793.463C1145.32 793.463 1141.78 797.011 1141.78 801.389C1141.78 805.766 1145.32 809.315 1149.69 809.315Z" fill="white"/>
<path d="M1149.69 811.296C1144.24 811.296 1139.8 806.854 1139.8 801.389C1139.8 795.924 1144.24 791.481 1149.69 791.481C1155.14 791.481 1159.58 795.924 1159.58 801.389C1159.58 806.854 1155.14 811.296 1149.69 811.296ZM1149.69 795.444C1146.42 795.444 1143.76 798.111 1143.76 801.389C1143.76 804.666 1146.42 807.333 1149.69 807.333C1152.96 807.333 1155.62 804.666 1155.62 801.389C1155.62 798.111 1152.96 795.444 1149.69 795.444Z" fill="#121212"/>
<path d="M663.156 1570.67C667.525 1570.67 671.067 1567.12 671.067 1562.74C671.067 1558.36 667.525 1554.82 663.156 1554.82C658.787 1554.82 655.245 1558.36 655.245 1562.74C655.245 1567.12 658.787 1570.67 663.156 1570.67Z" fill="white"/>
<path d="M663.156 1572.65C657.705 1572.65 653.267 1568.21 653.267 1562.74C653.267 1557.28 657.705 1552.83 663.156 1552.83C668.607 1552.83 673.045 1557.28 673.045 1562.74C673.045 1568.21 668.607 1572.65 663.156 1572.65ZM663.156 1556.8C659.885 1556.8 657.222 1559.46 657.222 1562.74C657.222 1566.02 659.885 1568.69 663.156 1568.69C666.427 1568.69 669.089 1566.02 669.089 1562.74C669.089 1559.46 666.427 1556.8 663.156 1556.8Z" fill="#121212"/>
<path d="M1315.82 1245.24C1320.19 1245.24 1323.74 1241.69 1323.74 1237.31C1323.74 1232.94 1320.19 1229.39 1315.82 1229.39C1311.46 1229.39 1307.91 1232.94 1307.91 1237.31C1307.91 1241.69 1311.46 1245.24 1315.82 1245.24Z" fill="white"/>
<path d="M1315.82 1247.22C1310.37 1247.22 1305.94 1242.78 1305.94 1237.31C1305.94 1231.85 1310.37 1227.41 1315.82 1227.41C1321.28 1227.41 1325.71 1231.85 1325.71 1237.31C1325.71 1242.78 1321.28 1247.22 1315.82 1247.22ZM1315.82 1231.37C1312.55 1231.37 1309.89 1234.04 1309.89 1237.31C1309.89 1240.59 1312.55 1243.26 1315.82 1243.26C1319.1 1243.26 1321.76 1240.59 1321.76 1237.31C1321.76 1234.04 1319.1 1231.37 1315.82 1231.37Z" fill="#121212"/>
<path d="M824.191 1680.18C828.56 1680.18 832.102 1676.63 832.102 1672.25C832.102 1667.88 828.56 1664.33 824.191 1664.33C819.822 1664.33 816.28 1667.88 816.28 1672.25C816.28 1676.63 819.822 1680.18 824.191 1680.18Z" fill="white"/>
<path d="M824.191 1682.16C818.74 1682.16 814.302 1677.72 814.302 1672.25C814.302 1666.79 818.74 1662.35 824.191 1662.35C829.642 1662.35 834.08 1666.79 834.08 1672.25C834.08 1677.72 829.642 1682.16 824.191 1682.16ZM824.191 1666.31C820.92 1666.31 818.258 1668.98 818.258 1672.25C818.258 1675.53 820.92 1678.2 824.191 1678.2C827.462 1678.2 830.124 1675.53 830.124 1672.25C830.124 1668.98 827.462 1666.31 824.191 1666.31Z" fill="#121212"/>
<path d="M1434.49 1051.06C1438.86 1051.06 1442.4 1047.51 1442.4 1043.13C1442.4 1038.75 1438.86 1035.2 1434.49 1035.2C1430.12 1035.2 1426.58 1038.75 1426.58 1043.13C1426.58 1047.51 1430.12 1051.06 1434.49 1051.06Z" fill="white"/>
<path d="M1434.49 1053.04C1429.04 1053.04 1424.6 1048.59 1424.6 1043.13C1424.6 1037.66 1429.04 1033.22 1434.49 1033.22C1439.94 1033.22 1444.38 1037.66 1444.38 1043.13C1444.38 1048.59 1439.94 1053.04 1434.49 1053.04ZM1434.49 1037.19C1431.22 1037.19 1428.56 1039.85 1428.56 1043.13C1428.56 1046.41 1431.22 1049.07 1434.49 1049.07C1437.76 1049.07 1440.42 1046.41 1440.42 1043.13C1440.42 1039.85 1437.76 1037.19 1434.49 1037.19Z" fill="#121212"/>
<path d="M1434.49 1011.43C1438.86 1011.43 1442.4 1007.88 1442.4 1003.5C1442.4 999.123 1438.86 995.574 1434.49 995.574C1430.12 995.574 1426.58 999.123 1426.58 1003.5C1426.58 1007.88 1430.12 1011.43 1434.49 1011.43Z" fill="white"/>
<path d="M1434.49 1013.41C1429.04 1013.41 1424.6 1008.97 1424.6 1003.5C1424.6 998.035 1429.04 993.593 1434.49 993.593C1439.94 993.593 1444.38 998.035 1444.38 1003.5C1444.38 1008.97 1439.94 1013.41 1434.49 1013.41ZM1434.49 997.556C1431.22 997.556 1428.56 1000.22 1428.56 1003.5C1428.56 1006.78 1431.22 1009.44 1434.49 1009.44C1437.76 1009.44 1440.42 1006.78 1440.42 1003.5C1440.42 1000.22 1437.76 997.556 1434.49 997.556Z" fill="#121212"/>
<path d="M1280.22 987.648C1284.59 987.648 1288.14 984.1 1288.14 979.722C1288.14 975.345 1284.59 971.796 1280.22 971.796C1275.85 971.796 1272.31 975.345 1272.31 979.722C1272.31 984.1 1275.85 987.648 1280.22 987.648Z" fill="white"/>
<path d="M1280.22 989.63C1274.77 989.63 1270.34 985.187 1270.34 979.722C1270.34 974.257 1274.77 969.815 1280.22 969.815C1285.67 969.815 1290.11 974.257 1290.11 979.722C1290.11 985.187 1285.67 989.63 1280.22 989.63ZM1280.22 973.778C1276.95 973.778 1274.29 976.445 1274.29 979.722C1274.29 983 1276.95 985.667 1280.22 985.667C1283.5 985.667 1286.16 983 1286.16 979.722C1286.16 976.445 1283.5 973.778 1280.22 973.778Z" fill="#121212"/>
<path d="M1517.56 670.611C1521.93 670.611 1525.47 667.063 1525.47 662.685C1525.47 658.308 1521.93 654.759 1517.56 654.759C1513.19 654.759 1509.65 658.308 1509.65 662.685C1509.65 667.063 1513.19 670.611 1517.56 670.611Z" fill="white"/>
<path d="M1517.56 672.593C1512.11 672.593 1507.67 668.15 1507.67 662.685C1507.67 657.22 1512.11 652.778 1517.56 652.778C1523.01 652.778 1527.45 657.22 1527.45 662.685C1527.45 668.15 1523.01 672.593 1517.56 672.593ZM1517.56 656.741C1514.29 656.741 1511.62 659.408 1511.62 662.685C1511.62 665.963 1514.29 668.63 1517.56 668.63C1520.83 668.63 1523.49 665.963 1523.49 662.685C1523.49 659.408 1520.83 656.741 1517.56 656.741Z" fill="#121212"/>
<path d="M961.049 1723.61C969.834 1723.61 976.955 1716.48 976.955 1707.68C976.955 1698.88 969.834 1691.74 961.049 1691.74C952.265 1691.74 945.144 1698.88 945.144 1707.68C945.144 1716.48 952.265 1723.61 961.049 1723.61Z" fill="white"/>
<path d="M961.049 1725.6C951.188 1725.6 943.166 1717.56 943.166 1707.68C943.166 1697.8 951.188 1689.76 961.049 1689.76C970.911 1689.76 978.933 1697.8 978.933 1707.68C978.933 1717.56 970.911 1725.6 961.049 1725.6ZM961.049 1693.73C953.372 1693.73 947.122 1699.99 947.122 1707.68C947.122 1715.37 953.372 1721.63 961.049 1721.63C968.727 1721.63 974.977 1715.37 974.977 1707.68C974.977 1699.99 968.727 1693.73 961.049 1693.73Z" fill="#121212"/>
<path d="M1228.8 1249.2C1235.36 1249.2 1240.67 1243.88 1240.67 1237.31C1240.67 1230.75 1235.36 1225.43 1228.8 1225.43C1222.25 1225.43 1216.94 1230.75 1216.94 1237.31C1216.94 1243.88 1222.25 1249.2 1228.8 1249.2Z" fill="white"/>
<path d="M1228.8 1251.19C1221.17 1251.19 1214.96 1244.96 1214.96 1237.31C1214.96 1229.67 1221.17 1223.44 1228.8 1223.44C1236.44 1223.44 1242.65 1229.67 1242.65 1237.31C1242.65 1244.96 1236.44 1251.19 1228.8 1251.19ZM1228.8 1227.41C1223.35 1227.41 1218.91 1231.85 1218.91 1237.31C1218.91 1242.78 1223.35 1247.22 1228.8 1247.22C1234.25 1247.22 1238.69 1242.78 1238.69 1237.31C1238.69 1231.85 1234.25 1227.41 1228.8 1227.41Z" fill="#121212"/>
<path d="M1086.4 1134.28C1092.96 1134.28 1098.27 1128.95 1098.27 1122.39C1098.27 1115.82 1092.96 1110.5 1086.4 1110.5C1079.85 1110.5 1074.53 1115.82 1074.53 1122.39C1074.53 1128.95 1079.85 1134.28 1086.4 1134.28Z" fill="white"/>
<path d="M1086.4 1136.26C1078.77 1136.26 1072.56 1130.04 1072.56 1122.39C1072.56 1114.74 1078.77 1108.52 1086.4 1108.52C1094.04 1108.52 1100.25 1114.74 1100.25 1122.39C1100.25 1130.04 1094.04 1136.26 1086.4 1136.26ZM1086.4 1112.48C1080.95 1112.48 1076.51 1116.92 1076.51 1122.39C1076.51 1127.85 1080.95 1132.3 1086.4 1132.3C1091.85 1132.3 1096.29 1127.85 1096.29 1122.39C1096.29 1116.92 1091.85 1112.48 1086.4 1112.48Z" fill="#121212"/>
<path d="M1593.29 1433.37C1596.83 1433.37 1599.7 1430.5 1599.7 1426.96C1599.7 1423.42 1596.83 1420.54 1593.29 1420.54C1589.75 1420.54 1586.89 1423.42 1586.89 1426.96C1586.89 1430.5 1589.75 1433.37 1593.29 1433.37Z" fill="white"/>
<path d="M1593.29 1435.35C1588.67 1435.35 1584.91 1431.59 1584.91 1426.95C1584.91 1422.32 1588.67 1418.56 1593.29 1418.56C1597.92 1418.56 1601.67 1422.32 1601.67 1426.95C1601.67 1431.59 1597.92 1435.35 1593.29 1435.35ZM1593.29 1422.52C1590.85 1422.52 1588.87 1424.51 1588.87 1426.96C1588.87 1429.4 1590.85 1431.39 1593.29 1431.39C1595.73 1431.39 1597.72 1429.4 1597.72 1426.96C1597.72 1424.51 1595.73 1422.52 1593.29 1422.52Z" fill="#121212"/>
<path d="M797.645 1055.02C802.014 1055.02 805.556 1051.47 805.556 1047.09C805.556 1042.72 802.014 1039.17 797.645 1039.17C793.276 1039.17 789.734 1042.72 789.734 1047.09C789.734 1051.47 793.276 1055.02 797.645 1055.02Z" fill="white"/>
<path d="M797.645 1057C792.194 1057 787.756 1052.56 787.756 1047.09C787.756 1041.63 792.194 1037.19 797.645 1037.19C803.096 1037.19 807.534 1041.63 807.534 1047.09C807.534 1052.56 803.096 1057 797.645 1057ZM797.645 1041.15C794.374 1041.15 791.712 1043.82 791.712 1047.09C791.712 1050.37 794.374 1053.04 797.645 1053.04C800.916 1053.04 803.578 1050.37 803.578 1047.09C803.578 1043.82 800.916 1041.15 797.645 1041.15Z" fill="#121212"/>
<path d="M572.178 1134.28C578.732 1134.28 584.044 1128.95 584.044 1122.39C584.044 1115.82 578.732 1110.5 572.178 1110.5C565.624 1110.5 560.311 1115.82 560.311 1122.39C560.311 1128.95 565.624 1134.28 572.178 1134.28Z" fill="white"/>
<path d="M572.178 1136.26C564.543 1136.26 558.333 1130.04 558.333 1122.39C558.333 1114.74 564.543 1108.52 572.178 1108.52C579.812 1108.52 586.022 1114.74 586.022 1122.39C586.022 1130.04 579.812 1136.26 572.178 1136.26ZM572.178 1112.48C566.727 1112.48 562.289 1116.92 562.289 1122.39C562.289 1127.85 566.727 1132.3 572.178 1132.3C577.629 1132.3 582.067 1127.85 582.067 1122.39C582.067 1116.92 577.629 1112.48 572.178 1112.48Z" fill="#121212"/>
</g>
<g clip-path="url(#clip1_22_37)">
<path d="M2205.55 269.768C2573.74 269.768 2872.22 568.172 2872.22 936.271C2872.22 1304.37 2573.74 1602.77 2205.55 1602.77C1837.37 1602.77 1538.89 1304.37 1538.89 936.275C1538.89 568.176 1837.37 269.768 2205.55 269.768ZM2205.55 1604.62C1836.94 1604.62 1537.05 1304.8 1537.05 936.271C1537.05 567.745 1836.94 267.927 2205.55 267.927C2574.17 267.927 2874.06 567.745 2874.06 936.271C2874.06 1304.8 2574.17 1604.62 2205.55 1604.62ZM2205.55 271.609C1838.97 271.609 1540.73 569.778 1540.73 936.271C1540.73 1302.77 1838.97 1600.93 2205.55 1600.93C2572.14 1600.93 2870.38 1302.77 2870.38 936.271C2870.38 569.778 2572.14 271.609 2205.55 271.609ZM2089.18 1477.65C2065.22 1469.66 2031.67 1445.71 2025.29 1418.56C2018.9 1391.41 1967.78 1396.2 1967.78 1396.2C1977.36 1345.08 1970.98 1305.19 1974.17 1279.62C1977.37 1254.06 2028.47 1236.5 2015.62 1225.32C2002.76 1214.14 2001.33 1186.99 2001.33 1186.99C2022.09 1150.27 2014.11 1124.71 2014.11 1124.71C1991.74 1062.43 1918.27 1072.01 1918.27 1072.01C1942.23 1052.85 1927.85 1040.08 1927.85 1040.08C1905.25 1030.47 1883.36 1019.26 1862.35 1006.54C1822.42 1022.51 1824.02 977.796 1824.02 977.796C1797.43 983.518 1769.67 979.552 1745.74 966.614C1653.1 977.796 1587.61 1059.24 1587.61 1059.24C1601.98 1084.79 1625.94 1107.15 1637.12 1150.27C1648.3 1193.39 1673.86 1206.15 1673.86 1206.15C1673.86 1206.15 1721.78 1215.73 1795.26 1321.13C1868.74 1426.54 1833.6 1340.3 1875.13 1393C1916.66 1445.7 1923.05 1455.3 1947.01 1456.89C1970.97 1458.48 2054.04 1500.01 2089.18 1500.01C2124.32 1500.01 2113.14 1485.63 2089.18 1477.65ZM1627.54 1008.14C1628.74 1033.29 1644.72 996.96 1644.72 996.96C1635.16 983.643 1624.9 970.848 1613.97 958.632C1613.97 958.632 1640.32 927.888 1603.18 907.924C1603.18 907.924 1635.13 861.617 1628.74 849.64C1628.74 849.64 1625.08 850.597 1584.81 879.18C1569.64 889.949 1576.03 824.883 1576.03 824.883C1588.01 812.905 1614.36 803.325 1622.75 791.348C1631.14 779.37 1644.96 762.124 1673.07 778.174C1689.84 787.754 1725.78 762.603 1725.78 762.603C1725.78 762.603 1747.34 797.338 1741.35 816.503C1741.35 816.503 1766.51 816.503 1768.91 769.79C1768.91 769.79 1785.68 738.649 1790.47 720.684C1819.06 706.826 1846.33 690.386 1871.94 671.579C1871.94 671.579 1903.57 700.74 1897.1 640.437C1893.5 606.902 1946.21 591.332 1946.21 591.332C1946.21 591.332 1935.43 520.665 1925.85 507.491C1925.85 507.491 1879.12 568.574 1887.51 507.491C1895.9 446.408 1833.6 514.678 1833.6 514.678C1833.6 514.678 1822.81 563.784 1772.5 562.587L1768.91 491.92C1768.91 491.92 1850.37 459.582 1844.38 440.418C1838.39 421.253 1898.29 399.696 1898.29 399.696C1898.29 399.696 1903.09 426.047 1919.86 428.44C1936.63 430.837 1894.7 491.92 1933.03 469.162C1971.37 446.404 1982.15 435.627 1982.15 435.627C1982.15 435.627 2002.52 386.522 2001.32 376.938C2001.32 376.938 2098.35 350.586 2111.54 369.751C2124.73 388.915 2050.45 408.079 2050.45 408.079C2050.45 408.079 2030.08 439.221 2034.87 455.988C2039.66 472.756 2010.91 460.779 1989.35 495.514C1989.35 495.514 2051.97 514.199 2113.11 454.792C2142.7 426.047 2134.31 408.079 2134.31 408.079C2134.31 408.079 2177.38 376.938 2205.56 370.951C2233.74 364.961 2205.56 323.042 2205.56 323.042C2205.56 323.042 2248.12 302.95 2236.14 270.49C2236.14 270.49 2077.72 255.413 1907.14 340.137C1736.57 424.85 1661.12 548.673 1643.92 577.035C1626.72 605.397 1557.74 728.741 1553.71 795.976C1549.68 863.211 1566.45 888.366 1559.26 902.737C1552.07 917.111 1582.02 918.307 1577.23 936.271C1572.44 954.239 1564.45 973.4 1587.62 987.774C1610.78 1002.15 1626.34 982.984 1627.54 1008.14ZM2641.67 954.839C2655.43 928.488 2703.37 900.343 2703.37 900.343C2703.37 900.343 2720.74 885.373 2709.36 873.395C2697.98 861.418 2691.39 864.411 2672.82 878.185C2654.25 891.96 2618.31 868.005 2591.35 827.88C2564.4 787.754 2562.6 798.535 2562.6 798.535C2562.6 798.535 2573.38 726.671 2495.51 763.203C2477.54 772.187 2442.8 756.016 2422.43 745.836C2402.07 735.655 2393.08 760.21 2392.48 762.603C2391.88 765 2352.35 772.784 2346.36 757.213C2340.37 741.642 2378.1 742.839 2350.55 720.681C2350.55 720.681 2282.27 735.055 2261.3 733.855C2240.33 732.658 2261.3 748.825 2213.38 750.622C2165.46 752.419 2185.22 800.328 2185.22 800.328C2185.22 800.328 2158.27 818.296 2151.08 839.853C2146.72 852.725 2137.37 863.303 2125.12 869.198V903.333C2125.12 903.333 2090.18 919.504 2125.12 949.445C2130.71 970.406 2132.71 986.574 2125.12 988.97C2125.12 988.97 2124.33 1019.31 2256.91 1012.13C2299.24 1012.13 2311.22 1019.31 2315.21 1045.66C2319.2 1072.01 2347.16 1103.15 2348.75 1115.13C2350.35 1127.11 2374.31 1151.06 2333.58 1190.19C2333.58 1190.19 2333.77 1204.56 2349.95 1216.54C2366.12 1228.52 2390.68 1294.4 2390.68 1294.4C2390.68 1294.4 2434.41 1337.51 2464.96 1348.3C2483.19 1354.76 2502.69 1356.82 2521.87 1354.29C2521.87 1354.29 2526.06 1339.32 2530.85 1323.74C2535.64 1308.17 2559.6 1305.78 2567.39 1248.29C2575.18 1190.79 2579.97 1134.5 2572.18 1114.74C2564.4 1094.98 2550.77 1048.86 2576.15 1020.12C2601.54 991.371 2627.91 981.191 2641.67 954.839ZM2633.52 1221.21C2634.81 1217.35 2636.2 1212.76 2637.64 1207.89C2641.36 1195.47 2645.99 1180.01 2650.75 1172.47C2658.56 1160.09 2660.53 1121.46 2660.84 1113.84C2660.87 1112.93 2660.74 1112.02 2660.44 1111.17C2659.13 1107.42 2655.03 1105.45 2651.28 1106.76C2639.02 1111.71 2627.8 1118.92 2618.22 1128.02C2593.36 1150.92 2597.31 1166.12 2600.48 1178.33C2601.74 1182.11 2602.31 1186.07 2602.17 1190.05C2601.5 1196.59 2595.05 1204.69 2589.87 1211.19C2583.76 1218.87 2579.34 1224.41 2580.8 1230.64C2581.54 1233.67 2583.65 1236.18 2586.51 1237.43C2590.96 1239.3 2595.74 1240.2 2600.56 1240.08C2606.66 1240.11 2612.71 1238.94 2618.36 1236.63C2625.42 1233.94 2630.96 1228.31 2633.52 1221.21ZM2846.5 752.279C2840.52 732.577 2800.9 615.139 2750.44 552.149C2699.97 489.159 2646.22 426.798 2588.04 390.303C2529.85 353.808 2498.26 333.149 2440.58 312.368C2382.9 291.591 2402.66 312.368 2402.66 312.368C2412.3 320.954 2424.11 326.72 2436.81 329.025C2436.81 329.025 2416.44 347.287 2412.55 366.452C2408.66 385.616 2390.08 372.144 2393.98 362.858C2397.88 353.572 2384.4 323.035 2364.03 322.438C2343.66 321.838 2327.19 343.996 2318.8 358.97C2310.41 373.944 2311.01 391.908 2280.46 397.299C2249.91 402.689 2254.1 444.608 2254.1 444.608L2282.26 433.827L2288.25 473.952C2288.25 473.952 2311.61 471.555 2319.4 438.021C2320 424.847 2304.42 419.456 2318.8 407.479C2333.17 395.502 2361.33 375.141 2361.33 369.151C2361.33 369.151 2366.12 413.466 2349.95 426.644C2333.77 439.817 2343.36 453.591 2361.33 445.208C2379.29 436.824 2387.68 427.24 2393.07 433.23C2398.46 439.221 2366.12 461.379 2366.12 461.379C2366.12 461.379 2364.92 498.507 2337.36 496.71C2319.39 497.907 2312.8 518.268 2312.8 518.268C2312.8 518.268 2288.24 520.065 2285.85 500.9C2283.45 481.736 2273.27 476.946 2271.47 501.5C2269.68 526.055 2280.46 555.996 2248.71 573.364C2216.96 590.732 2198.39 587.738 2198.39 587.738C2198.39 587.738 2194.73 598.519 2205.55 615.286C2216.36 632.054 2201.99 668.585 2176.23 637.444C2150.47 606.302 2143.48 670.382 2143.48 670.382C2143.48 670.382 2122.62 691.343 2122.92 706.914C2123.21 722.485 2128.79 733.365 2137.09 735.861C2156.21 741.609 2158.66 759.816 2168.24 754.227C2177.83 748.638 2176.51 735.383 2213.77 735.861C2230.54 735.861 2232.38 706.314 2238.25 696.734C2244.12 687.153 2268.88 648.825 2297.63 653.615C2312.81 656.012 2304.02 668.788 2340.76 668.788C2357.54 669.583 2325.59 686.351 2331.98 691.944C2338.37 697.536 2346.35 711.108 2356.74 695.935C2367.12 680.762 2357.54 661.605 2380.7 658.409C2391.88 656.814 2389.48 685.559 2393.48 691.944C2397.47 698.328 2412.65 706.318 2421.43 668.788C2430.21 631.262 2444.59 647.23 2451.78 659.208C2458.97 671.185 2478.94 674.366 2502.9 669.576C2502.9 669.576 2520.67 717.087 2531.45 723.674C2542.23 730.261 2552.41 745.066 2567.99 755.629C2583.56 766.193 2609.32 810.508 2624.9 819.492C2624.9 833.266 2633.88 874.588 2653.65 859.618C2673.41 844.647 2672.82 838.657 2688.39 824.286C2699.77 817.099 2730.92 829.676 2744.7 792.548C2715.95 759.013 2723.13 753.372 2688.99 754.098C2676.41 730.865 2675.21 726.075 2682.4 720.684C2689.59 715.294 2701.52 739.249 2713.22 738.652C2724.93 738.052 2744.1 720.684 2756.08 720.684C2768.06 720.684 2762.67 736.855 2774.65 739.249C2786.63 741.646 2788.42 748.829 2794.41 767.397C2800.4 785.961 2823.16 788.954 2826.76 822.493C2832.35 844.448 2848.32 852.438 2848.32 817.305C2848.33 782.158 2852.48 771.977 2846.5 752.279ZM2200.56 519.082C2200.23 519.395 2168.42 550.267 2177.28 561.284C2178.75 563.235 2181.06 564.365 2183.51 564.332C2187.55 563.857 2191.39 562.281 2194.59 559.778C2212.53 547.8 2212.74 525.216 2212.74 524.258C2212.74 522.399 2212.01 520.61 2210.72 519.269C2207.97 516.408 2203.41 516.324 2200.56 519.082ZM2214.18 552.314C2214.61 555.164 2216.71 557.477 2219.5 558.194C2220.08 558.342 2220.68 558.419 2221.28 558.419C2223.52 558.419 2225.64 557.373 2227 555.591C2227.27 555.231 2254.05 519.888 2243.63 510.359C2237.44 504.693 2229.94 511.537 2226.74 514.464C2210.82 529.012 2214.03 551.357 2214.18 552.314ZM1744.22 920.446C1742.33 923.933 1743.62 928.296 1747.11 930.192C1756.06 934.957 1764.23 941.08 1771.31 948.344C1772.67 950.049 1774.72 951.039 1776.9 951.043V951.025C1778.54 951.025 1780.12 950.469 1781.39 949.449C1784.49 946.971 1784.99 942.446 1782.51 939.349C1773.72 928.363 1754.78 918.002 1753.97 917.564C1750.48 915.671 1746.12 916.96 1744.22 920.446ZM1770.91 907.924C1770.91 903.955 1767.69 900.737 1763.72 900.737C1761.54 900.085 1759.57 898.878 1758 897.236C1755.19 894.434 1750.64 894.441 1747.84 897.254C1745.03 900.067 1745.04 904.614 1747.85 907.416C1752.06 911.787 1757.68 914.511 1763.72 915.111C1767.69 915.111 1770.91 911.893 1770.91 907.924ZM1791.59 887.055C1792.18 883.13 1789.48 879.47 1785.56 878.878C1785.22 878.83 1752.31 873.546 1745.01 850.671C1742.89 843.94 1741.22 837.077 1740.01 830.126C1737.81 818.487 1736.22 810.085 1722.11 800.902C1722.06 800.869 1722.01 800.84 1721.96 800.807C1718.58 798.726 1714.15 799.779 1712.07 803.159C1708.35 809.017 1703.86 814.356 1698.74 819.036C1695.65 821.58 1693.96 825.446 1694.19 829.437C1694.69 838.329 1704.57 846.584 1709.41 850.111C1715.48 861.742 1728.92 885.325 1739.74 888.48C1753.16 891.518 1766.86 893.134 1780.62 893.303C1782.16 893.326 1783.7 893.267 1785.23 893.13C1788.49 892.788 1791.11 890.292 1791.59 887.055ZM2739.91 1306.97C2730.32 1326.73 2668.63 1340.51 2668.63 1340.51C2686.6 1370.45 2629.09 1403.39 2629.09 1403.39C2629.09 1403.39 2610.52 1421.36 2612.32 1429.12C2635.08 1421.93 2629.09 1431.52 2638.06 1443.49C2680.57 1417.12 2756.24 1312.05 2774.86 1283.28C2761.89 1280.54 2749.49 1287.21 2739.91 1306.97ZM2153.05 447.351C2138.16 452.373 2124.12 459.611 2111.39 468.823C2109.6 470.182 2108.55 472.299 2108.55 474.545C2108.55 478.514 2111.77 481.732 2115.74 481.732C2117.31 481.732 2118.83 481.22 2120.08 480.274C2131.54 472.06 2144.15 465.572 2157.49 461.018C2157.57 460.992 2157.66 460.966 2157.74 460.937C2161.49 459.644 2163.49 455.554 2162.19 451.802C2160.9 448.05 2156.81 446.058 2153.05 447.351ZM2205.55 1604.62C1836.94 1604.62 1537.05 1304.8 1537.05 936.271C1537.05 567.745 1836.94 267.927 2205.55 267.927C2574.17 267.927 2874.06 567.745 2874.06 936.271C2874.06 1304.8 2574.17 1604.62 2205.55 1604.62ZM2205.55 271.609C1838.97 271.609 1540.73 569.778 1540.73 936.271C1540.73 1302.77 1838.97 1600.93 2205.55 1600.93C2572.14 1600.93 2870.38 1302.77 2870.38 936.271C2870.38 569.778 2572.14 271.609 2205.55 271.609Z" fill="#121212"/>
</g>
<g clip-path="url(#clip2_22_37)">
<path d="M433.484 1477.35C391.105 1550.09 415.55 1643.31 488.082 1685.57C560.615 1727.83 653.768 1703.12 696.147 1630.39C738.526 1557.65 714.081 1464.43 641.549 1422.17C569.016 1379.91 475.862 1404.61 433.484 1477.35Z" fill="#121212"/>
<path d="M588.57 1421.66C586.955 1424.32 585.488 1427.05 584.176 1429.87C583.34 1431.3 582.957 1432.61 582.121 1434.05L580.401 1437.66C578.466 1442.3 576.531 1446.93 574.476 1451.12C572.422 1455.3 570.535 1459.2 568.362 1462.93L563.848 1470.67C563.442 1471.48 562.892 1472.2 562.224 1472.8C560.071 1475.59 557.665 1478.18 555.039 1480.53C552.168 1483.06 549.139 1485.4 545.97 1487.55C544.276 1488.48 542.414 1489.7 540.72 1490.64C539.914 1491.32 538.97 1491.82 537.952 1492.1L534.73 1493.68C525.973 1498.19 517.383 1502.4 508.674 1506.17C499.797 1510.22 490.802 1513.82 481.807 1517.42C477.226 1519.36 472.812 1521.02 468.111 1522.51C463.697 1524.16 458.997 1525.65 454.583 1527.31C446.464 1530.26 438.007 1532.18 429.414 1533.01C425.713 1533.46 421.975 1533.47 418.274 1533.06C417.449 1532.89 416.611 1532.79 415.77 1532.75C415.483 1532.58 415.03 1532.7 414.744 1532.54C412.97 1544.59 412.673 1556.8 413.86 1568.92C419.365 1569.9 424.939 1570.45 430.532 1570.56C436.577 1570.56 442.614 1570.09 448.59 1569.17C454.191 1568.48 459.728 1567.33 465.147 1565.75C470.587 1564.3 475.406 1563.27 480.559 1561.66C485.546 1560.34 490.699 1558.73 495.567 1556.95C505.587 1553.57 515.608 1550.18 525.51 1546.34C535.412 1542.5 544.742 1538.33 554.692 1533.75L558.366 1532.05C559.607 1531.23 560.967 1530.87 562.208 1530.06C564.961 1528.69 567.638 1527.17 570.226 1525.51C575.567 1522.17 580.671 1518.47 585.5 1514.42C590.379 1510.12 594.906 1505.43 599.035 1500.4C600.101 1499.12 601.037 1497.73 601.829 1496.26C602.664 1494.83 603.786 1493.56 604.622 1492.13L609.136 1484.38C612.002 1479.5 614.563 1474.44 616.804 1469.25C618.906 1464.32 621.009 1459.4 622.944 1454.76L624.497 1451.44C624.998 1450.58 625.214 1449.55 625.715 1448.69C626.718 1446.97 627.435 1445.08 628.271 1443.64C630.022 1440.42 632.06 1437.36 634.36 1434.51C636.478 1431.93 638.872 1429.58 641.497 1427.52C642.697 1426.64 643.939 1425.83 645.22 1425.08C645.824 1424.84 646.394 1424.53 646.914 1424.14C632.789 1415.26 617.321 1408.71 601.105 1404.76L600.938 1405.04C596.24 1410.13 592.094 1415.7 588.57 1421.66V1421.66Z" fill="white"/>
<path d="M698.491 1587.56C690.359 1592.71 681.973 1597.44 673.363 1601.74C655.395 1610.87 637.26 1620.29 619.292 1629.42C601.443 1639.01 583.475 1648.14 565.625 1657.73C556.405 1662.55 547.437 1667.84 538.755 1673.59C529.662 1679.51 521.605 1686.89 514.91 1695.44C514.409 1696.3 513.788 1696.7 513.287 1697.56C517.508 1698.87 522.015 1700.34 526.236 1701.65C532.406 1695.94 539.261 1691.03 546.641 1687.02C555.297 1682.3 564.248 1678.14 573.438 1674.58C592.216 1666.69 610.708 1658.63 629.2 1650.57L684.676 1626.4C690.331 1623.93 696.44 1621.34 702.429 1618.29C709.13 1604.03 713.483 1588.79 715.318 1573.15C710.448 1578.75 704.777 1583.61 698.491 1587.56V1587.56Z" fill="white"/>
<path d="M436.936 1485.9C446.597 1485.76 456.949 1486.41 467.684 1485.75C478.232 1485.2 488.714 1483.72 499.007 1481.32C509.251 1478.89 519.227 1475.43 528.783 1471C533.531 1468.77 538.28 1466.54 542.909 1463.86C547.747 1461.17 552.169 1457.79 556.036 1453.82C558.128 1451.65 559.846 1449.15 561.122 1446.41C562.576 1443.84 563.563 1441.03 564.038 1438.12C564.96 1432.45 564.679 1426.66 563.215 1421.11C561.823 1415.81 559.367 1410.85 555.997 1406.53C554.615 1404.96 553.518 1403.55 552.136 1401.97C549.45 1401.99 546.777 1402.37 544.192 1403.11C550.236 1408.45 554.403 1415.59 556.081 1423.49C557.004 1427.9 556.96 1432.47 555.952 1436.87C554.876 1441.01 552.678 1444.79 549.599 1447.77C546.306 1450.97 542.466 1453.55 538.264 1455.38C536.116 1456.44 533.682 1457.33 531.535 1458.38C530.418 1458.97 529.242 1459.45 528.027 1459.8C526.91 1460.39 525.735 1460.86 524.52 1461.21C515.357 1464.45 505.905 1466.8 496.296 1468.21C486.781 1469.62 477.151 1470.06 467.552 1469.53C458.965 1469.14 450.14 1467.84 440.862 1466.66C436.389 1473.13 432.329 1479.88 428.706 1486.87C431.396 1486.18 434.163 1485.85 436.936 1485.9V1485.9Z" fill="white"/>
<path d="M673.444 1452.28C672.75 1454.04 671.894 1455.73 670.888 1457.33C668.803 1460.88 666.448 1464.26 663.844 1467.44C661.098 1470.84 658.067 1474.07 654.868 1477.59L649.641 1482.61L644.413 1487.64C637.157 1494.17 629.901 1500.7 622.24 1506.62C606.973 1518.88 590.712 1529.85 573.627 1539.4C538.99 1558.95 501.24 1572.32 462.061 1578.94C451.8 1580.26 441.643 1582.3 431.667 1585.06C429.009 1585.76 426.415 1586.69 423.913 1587.84C421.765 1588.9 419.332 1589.78 417.017 1591.13C417.85 1594.3 418.849 1597.19 419.682 1600.37C420.135 1600.24 420.47 1599.67 420.923 1599.55C425.014 1597.32 429.425 1595.74 433.998 1594.87C443.636 1592.84 453.4 1591.46 463.221 1590.76C504.271 1586.02 544.408 1575.21 582.321 1558.69C601.512 1550.42 620.024 1540.64 637.681 1529.45C646.654 1523.92 655.222 1517.76 663.503 1511.44C665.532 1509.93 667.728 1508.14 669.756 1506.63C671.785 1505.12 673.981 1503.33 676.009 1501.82C680.389 1498.37 684.505 1494.61 688.325 1490.55C690.402 1488.3 692.312 1486.34 694.389 1484.09C695.344 1483.11 696.179 1481.67 697.301 1480.4C691.015 1468.83 683.164 1458.17 673.971 1448.75C674.074 1449.95 673.894 1451.16 673.444 1452.28Z" fill="white"/>
<path d="M701.487 1498.22C694.776 1499.06 688.238 1500.95 682.114 1503.84C676.587 1506.32 671.278 1509.27 666.245 1512.66C661.49 1515.72 656.952 1519.11 652.666 1522.81C650.47 1524.6 648.727 1526.28 646.532 1528.07L640.851 1533.22C633.142 1539.87 625.551 1546.98 618.128 1553.8C610.705 1560.62 603.282 1567.44 596.026 1573.98C588.77 1580.51 581.227 1586.88 573.685 1593.24C566.31 1599.32 558.363 1605.07 550.869 1610.7C543.089 1616.16 535.309 1621.61 527.41 1626.62C511.704 1637 494.744 1645.33 476.942 1651.41C472.409 1652.61 467.709 1654.1 463.057 1654.85C459.496 1655.54 455.895 1656.01 452.275 1656.25C457.503 1661.93 463.109 1667.25 469.056 1672.18C472.921 1672.12 476.499 1671.9 480.363 1671.85C502.241 1670.61 523.7 1665.25 543.61 1656.04C553.406 1651.44 562.878 1646.17 571.959 1640.28C576.469 1637.14 580.813 1634.29 585.037 1630.99C587.066 1629.48 589.261 1627.68 591.29 1626.18C593.319 1624.67 595.514 1622.87 597.543 1621.36C605.706 1614.59 613.415 1607.94 621.005 1600.83C628.429 1594.01 636.019 1586.9 643.442 1580.08C650.865 1573.26 658.002 1566.27 665.139 1559.28L670.653 1554.43C672.349 1552.65 674.194 1551.03 676.167 1549.57C679.427 1546.58 682.932 1543.86 686.644 1541.45C689.859 1538.94 693.39 1536.86 697.144 1535.27C700.189 1533.59 703.54 1532.53 706.997 1532.17C709.455 1531.58 712.032 1531.74 714.392 1532.64L716.395 1533.8C714.712 1521.84 711.638 1510.12 707.235 1498.87C705.429 1498.09 703.427 1497.86 701.487 1498.22Z" fill="white"/>
<path d="M430.79 1475.4C443.16 1454.21 460.337 1436.24 480.928 1422.93C501.519 1409.62 524.941 1401.36 549.294 1398.81C573.647 1396.26 598.243 1399.49 621.085 1408.25C643.927 1417.01 664.371 1431.05 680.756 1449.22C697.142 1467.39 709.007 1489.19 715.388 1512.84C721.769 1536.49 722.486 1561.33 717.481 1585.33C712.476 1609.34 701.89 1631.84 686.583 1651.01C671.275 1670.17 651.678 1685.47 629.383 1695.64C599.287 1709.42 565.616 1713.24 533.251 1706.57C500.886 1699.9 471.51 1683.07 449.381 1658.53C427.253 1633.99 413.522 1603.01 410.179 1570.08C406.836 1537.15 414.055 1503.99 430.79 1475.4V1475.4ZM692.833 1628.84C703.759 1610.14 710.48 1589.29 712.526 1567.74C714.572 1546.19 711.895 1524.46 704.68 1504.08C697.465 1483.7 685.887 1465.15 670.756 1449.74C655.626 1434.32 637.306 1422.41 617.08 1414.83C589.601 1404.58 559.685 1402.73 531.113 1409.5C502.541 1416.28 476.594 1431.38 456.553 1452.89C436.511 1474.41 423.274 1501.37 418.514 1530.38C413.754 1559.39 417.684 1589.14 429.809 1615.87V1615.87C437.848 1633.63 449.31 1649.62 463.54 1662.92C477.769 1676.22 494.486 1686.57 512.733 1693.38C530.979 1700.2 550.397 1703.33 569.875 1702.61C589.352 1701.9 608.506 1697.34 626.239 1689.2C654.071 1676.37 677.317 1655.3 692.833 1628.84V1628.84Z" fill="#121212"/>
<path d="M442.395 1662.02C436.168 1664.16 429.941 1666.3 423.594 1667.98C417.248 1669.66 410.902 1671.35 404.27 1672.86C397.526 1674.28 390.664 1675.04 383.778 1675.14C379.942 1675.17 376.125 1674.63 372.449 1673.54C370.076 1672.89 367.872 1671.74 365.987 1670.16C363.539 1668.37 361.641 1665.93 360.505 1663.12C359.614 1660.38 359.347 1657.46 359.724 1654.6C360.05 1652.33 360.694 1650.11 361.637 1648.02C363.241 1644.61 365.143 1641.35 367.321 1638.27C371.499 1632.65 376.113 1627.37 381.119 1622.48C385.893 1617.57 391.073 1613.29 395.966 1608.84C401.145 1604.55 406.324 1600.27 411.622 1596.44C422.1 1588.32 432.982 1580.83 443.983 1573.79C454.985 1566.74 465.986 1559.7 477.274 1552.83C488.394 1546.24 499.8 1539.82 511.493 1533.56C523.186 1527.31 534.711 1521.34 546.523 1515.54C558.334 1509.74 569.979 1504.22 582.195 1499.04C594.412 1493.86 606.175 1488.8 618.225 1483.91C630.56 1479.18 642.61 1474.29 654.897 1470.3C661.124 1468.17 667.351 1466.03 673.698 1464.35C679.925 1462.21 686.271 1460.53 692.617 1458.84C698.964 1457.16 705.31 1455.48 711.775 1454.25C718.24 1453.02 724.872 1451.5 731.456 1450.73C738.32 1449.72 745.252 1449.26 752.186 1449.35C755.952 1449.38 759.705 1449.77 763.396 1450.5C765.489 1450.99 767.533 1451.66 769.502 1452.52C772.013 1453.5 774.253 1455.07 776.034 1457.1C778.098 1459.29 779.422 1462.08 779.821 1465.07C780.206 1467.65 779.984 1470.28 779.172 1472.76C778.594 1474.81 777.716 1476.76 776.568 1478.55C775.673 1480.21 774.626 1481.79 773.44 1483.26C769.243 1488.79 764.483 1493.88 759.236 1498.43C754.25 1502.85 749.023 1506.99 743.58 1510.83C738.356 1514.76 732.914 1518.39 727.28 1521.7C726.557 1522.13 725.697 1522.26 724.88 1522.07C724.062 1521.88 723.35 1521.38 722.892 1520.68C722.489 1520.01 722.353 1519.22 722.513 1518.46C722.673 1517.69 723.116 1517.02 723.754 1516.57V1516.57C728.479 1512.41 733.659 1508.12 738.098 1503.79C742.815 1499.59 747.316 1495.16 751.585 1490.51C755.755 1486.14 759.452 1481.33 762.615 1476.18C763.94 1474.09 764.894 1471.79 765.435 1469.37C765.606 1468.73 765.599 1468.07 765.412 1467.44C765.293 1466.98 765.126 1467.27 764.84 1467.1C763.339 1466.21 761.626 1465.74 759.879 1465.75C757.129 1465.38 754.346 1465.31 751.579 1465.52C745.524 1465.9 739.508 1466.76 733.591 1468.11C721.274 1470.73 709.112 1474.04 697.16 1478.02C673.039 1485.87 648.988 1494.92 625.461 1505.04C613.698 1510.1 601.935 1515.16 590.29 1520.67C578.646 1526.19 567.169 1531.41 555.357 1537.21C543.713 1542.73 532.187 1548.69 521.115 1554.54C509.59 1560.51 498.351 1566.64 487.397 1572.95C465.205 1585.38 442.964 1598.56 422.273 1613.02C411.844 1620.4 401.701 1627.94 392.416 1635.98C387.795 1639.92 383.493 1644.23 379.55 1648.85C377.91 1650.96 376.38 1653.14 374.966 1655.41C374.464 1656.27 374.082 1657.58 373.747 1658.15C373.744 1658.62 373.611 1659.07 373.365 1659.47C373.365 1659.47 373.198 1659.76 373.77 1660.09L375.773 1661.26C378.182 1662.12 380.69 1662.67 383.238 1662.92C389.335 1663.41 395.468 1663.24 401.534 1662.43C407.665 1661.77 414.249 1661 420.261 1659.89C426.559 1658.95 432.738 1657.55 439.203 1656.32C439.999 1656.19 440.815 1656.37 441.478 1656.82C442.142 1657.28 442.6 1657.98 442.755 1658.78C444.758 1659.94 443.922 1661.38 442.395 1662.02Z" fill="#121212"/>
</g>
<g clip-path="url(#clip3_22_37)">
<path d="M267.66 1958.52L258.582 1975.83L267.23 1980.39C267.482 1980.53 292.871 1993.92 333.167 2014.34C476.736 2087.11 749.991 2100.67 845.994 2039.85C848.69 2038.14 851.183 2036.41 853.492 2034.65C846.903 2157.8 859.413 2418.3 1005.36 2448.53C1130.35 2474.43 1161.89 2371.36 1189.73 2280.43C1208.06 2220.51 1225.58 2163.84 1265.76 2148.17C1294.06 2137.14 1332.76 2146.39 1384.08 2176.46C1570.53 2285.7 1665.78 2207.05 1698.06 2168.16C1751.49 2103.82 1760 2002.81 1716.27 1952.01L1709.89 1944.59L1695.11 1957.35L1701.49 1964.76C1738.79 2008.1 1729.99 2099.08 1683.04 2155.63C1621.5 2229.74 1516.12 2231.18 1393.91 2159.58C1337.11 2126.29 1292.87 2116.6 1258.65 2129.94C1257.47 2130.4 1256.3 2130.89 1255.16 2131.39C1208.59 2152.04 1190.35 2211.64 1171.06 2274.66C1143.2 2365.68 1116.88 2451.65 1009.28 2429.37C975.398 2422.35 947.156 2399.62 925.344 2361.83C866.767 2260.33 868.932 2078.62 874.713 2010.12C879.196 2001.08 880.387 1992.53 880.205 1985.49C880.088 1981.03 879.811 1970.57 870.081 1970.06C859.903 1969.54 858.624 1979.78 857.122 1991.63C856.656 1995.35 856.19 1999.52 855.745 2004.09C851.597 2010.98 844.849 2017.4 835.544 2023.3C753.43 2075.3 489.464 2071.65 341.959 1996.88C301.817 1976.54 276.559 1963.22 276.307 1963.08L267.66 1958.52Z" fill="#121212"/>
<path d="M253.805 1933.02L229.6 1979.18L348.932 2040.72C353.221 2042.93 358.477 2041.23 360.646 2036.92L376.271 2005.88C378.416 2001.62 376.726 1996.41 372.479 1994.22L253.805 1933.02Z" fill="white"/>
<path d="M252.818 1930.78C252.332 1930.99 251.91 1931.37 251.645 1931.88L227.44 1978.04C227.14 1978.61 227.077 1979.29 227.274 1979.91C227.471 1980.54 227.908 1981.06 228.485 1981.36L347.812 2042.91C353.097 2045.63 360.147 2043.35 362.82 2038.03L378.446 2007C381.184 2001.55 379.004 1994.85 373.589 1992.06L254.922 1930.84C254.239 1930.49 253.465 1930.49 252.818 1930.78ZM232.911 1978.13L254.85 1936.3L371.362 1996.4C374.402 1997.97 375.624 2001.73 374.091 2004.78L358.466 2035.82C356.955 2038.82 353.029 2040.09 350.047 2038.55L232.911 1978.13Z" fill="#121212"/>
<path d="M284.887 1949.29L260.682 1995.45L331.508 2031.84L354.944 1985.28L284.887 1949.29Z" fill="white"/>
<path d="M283.896 1947.05C283.409 1947.27 282.988 1947.64 282.722 1948.15L258.517 1994.31C258.218 1994.89 258.155 1995.56 258.351 1996.19C258.548 1996.81 258.986 1997.33 259.567 1997.63L330.393 2034.02C330.974 2034.32 331.643 2034.37 332.264 2034.17C332.871 2033.97 333.394 2033.53 333.683 2032.95L357.121 1986.4C357.726 1985.2 357.246 1983.73 356.052 1983.12L285.995 1947.13C285.316 1946.76 284.547 1946.76 283.896 1947.05ZM263.991 1994.4L285.926 1952.57L351.674 1986.35L330.433 2028.53L263.991 1994.4Z" fill="#121212"/>
</g>
<g clip-path="url(#clip4_22_37)">
<path d="M1502.77 2193.08L1408.11 2125.95L1224.94 1999.46C1194.96 1978.77 1189.92 1936.34 1214.21 1909.15L1289.26 1825.11L1697.05 2028.53L1502.77 2193.08Z" fill="#121212"/>
<path d="M1502.92 2196.38L1701.77 2027.96L1288.66 1821.89L1212.28 1907.41C1200.21 1920.93 1194.51 1939.03 1196.66 1957.06C1198.8 1975.08 1208.57 1991.33 1223.47 2001.61L1406.64 2128.1L1502.92 2196.38ZM1692.37 2029.09L1502.63 2189.79L1409.61 2123.83L1226.41 1997.32C1212.74 1987.88 1203.78 1972.98 1201.81 1956.44C1199.85 1939.9 1205.08 1923.3 1216.15 1910.9L1289.88 1828.33L1692.37 2029.09Z" fill="#121212"/>
<path d="M1331.33 1639.35H1185.6V1926.18C1185.6 1947.63 1202.56 1965.19 1223.91 1965.86L1351.89 1969.88V1659.99C1351.89 1648.59 1342.68 1639.35 1331.33 1639.35Z" fill="#121212"/>
<path d="M1351.89 1972.49C1352.56 1972.49 1353.21 1972.22 1353.69 1971.75C1354.2 1971.26 1354.48 1970.58 1354.48 1969.88V1659.99C1354.48 1647.17 1344.1 1636.74 1331.33 1636.74H1185.6C1184.17 1636.74 1183 1637.91 1183 1639.35V1926.18C1183 1949.17 1200.93 1967.75 1223.83 1968.47L1351.8 1972.49C1351.83 1972.49 1351.86 1972.49 1351.89 1972.49ZM1331.33 1641.96C1341.23 1641.96 1349.29 1650.05 1349.29 1659.99V1967.19L1224 1963.26C1203.92 1962.63 1188.2 1946.34 1188.2 1926.19V1641.96H1331.33Z" fill="#121212"/>
<path d="M1674.71 2099.88L1607.54 2027.65C1607.05 2027.12 1606.59 2026.55 1606.19 2025.95L1519.98 1897.14C1487.92 1849.23 1505.76 1783.92 1557.67 1759.13L1613.45 1732.5C1618.88 1729.9 1625.37 1731.2 1629.4 1735.68L1895.58 2031.85C1902.48 2039.52 1898.72 2051.8 1888.73 2054.27L1687.91 2103.83C1683.13 2105.01 1678.08 2103.5 1674.71 2099.88Z" fill="#121212"/>
<path d="M1684.66 2106.83C1685.96 2106.83 1687.27 2106.67 1688.53 2106.36L1889.35 2056.8C1894.94 2055.42 1899.28 2051.3 1900.97 2045.77C1902.66 2040.25 1901.37 2034.39 1897.51 2030.1L1631.33 1733.93C1626.64 1728.71 1618.66 1727.11 1612.33 1730.14L1556.56 1756.77C1531.13 1768.92 1512.28 1791.52 1504.83 1818.78C1497.39 1846.04 1502.12 1875.13 1517.83 1898.59L1604.04 2027.4C1604.53 2028.12 1605.06 2028.8 1605.64 2029.42L1672.82 2101.66C1675.87 2104.94 1680.19 2106.83 1684.66 2106.83ZM1619.29 1733.78C1622.41 1733.78 1625.39 1735.11 1627.47 1737.43L1893.65 2033.6C1896.27 2036.51 1897.16 2040.49 1896 2044.25C1894.86 2048 1891.9 2050.8 1888.11 2051.74L1687.29 2101.3C1686.43 2101.51 1685.54 2101.62 1684.66 2101.62C1681.62 2101.62 1678.68 2100.34 1676.61 2098.11L1609.43 2025.87C1609.04 2025.44 1608.67 2024.98 1608.33 2024.48L1522.13 1895.69C1507.27 1873.48 1502.79 1845.96 1509.84 1820.16C1516.88 1794.37 1534.72 1772.98 1558.79 1761.49L1614.55 1734.85C1616.06 1734.14 1617.65 1733.78 1619.29 1733.78Z" fill="#121212"/>
<path d="M1624.92 1498.52H1476.6V1743.64C1476.6 1789.75 1513.84 1827.13 1559.77 1827.13H1642.89V1516.55C1642.89 1506.59 1634.84 1498.52 1624.92 1498.52Z" fill="#121212"/>
<path d="M1559.77 1829.74H1642.89C1644.32 1829.74 1645.48 1828.57 1645.48 1827.13V1516.55C1645.48 1505.17 1636.26 1495.91 1624.91 1495.91H1476.6C1475.17 1495.91 1474 1497.08 1474 1498.52V1743.64C1474 1791.12 1512.48 1829.74 1559.77 1829.74ZM1640.29 1824.53H1559.77C1515.34 1824.53 1479.2 1788.24 1479.2 1743.64V1501.13H1624.91C1633.39 1501.13 1640.29 1508.05 1640.29 1516.55V1824.53Z" fill="#121212"/>
<path d="M1424.54 1577.76L1346.02 1524.06C1324.54 1509.36 1312.93 1483.94 1315.86 1458.02L1316.86 1449.2C1317.94 1439.68 1326.5 1432.84 1335.99 1433.92L1513.24 1454.13L1520.46 1677.58L1460.27 1668.8L1447.21 1611.17C1444.13 1597.56 1436.03 1585.62 1424.54 1577.76Z" fill="#121212"/>
<path d="M1520.46 1680.19C1521.09 1680.19 1521.71 1679.96 1522.19 1679.53C1522.76 1679.01 1523.08 1678.27 1523.06 1677.5L1515.84 1454.04C1515.79 1452.75 1514.81 1451.68 1513.54 1451.54L1336.29 1431.32C1325.27 1430.07 1315.52 1438.06 1314.29 1448.9L1313.29 1457.72C1310.24 1484.69 1322.22 1510.93 1344.57 1526.21L1423.08 1579.92C1434.07 1587.43 1441.75 1598.73 1444.69 1611.75L1457.74 1669.38C1457.98 1670.43 1458.84 1671.22 1459.9 1671.38L1520.09 1680.16C1520.21 1680.18 1520.33 1680.19 1520.46 1680.19ZM1510.72 1456.47L1517.76 1674.55L1462.4 1666.48L1449.74 1610.6C1446.51 1596.29 1438.08 1583.87 1426 1575.61L1347.48 1521.91C1326.75 1507.72 1315.62 1483.35 1318.45 1458.32L1319.45 1449.5C1320.36 1441.48 1327.6 1435.58 1335.7 1436.51L1510.72 1456.47Z" fill="#121212"/>
<path d="M1146.68 1711.06L1072.93 1650.93C1052.75 1634.49 1043.31 1608.18 1048.4 1582.59L1053.52 1556.87L1245.41 1595.33L1233.93 1818.6L1174.68 1804.79L1166.49 1746.27C1164.55 1732.44 1157.48 1719.86 1146.68 1711.06Z" fill="#121212"/>
<path d="M1233.92 1821.21C1234.48 1821.21 1235.03 1821.03 1235.49 1820.69C1236.1 1820.22 1236.47 1819.51 1236.51 1818.74L1248 1595.46C1248.07 1594.17 1247.18 1593.02 1245.92 1592.77L1054.03 1554.31C1053.34 1554.17 1052.65 1554.31 1052.08 1554.69C1051.51 1555.08 1051.1 1555.68 1050.97 1556.35L1045.86 1582.07C1040.56 1608.68 1050.31 1635.84 1071.29 1652.95L1145.05 1713.08C1155.37 1721.5 1162.07 1733.4 1163.92 1746.62L1172.11 1805.14C1172.26 1806.21 1173.05 1807.07 1174.1 1807.31L1233.33 1821.13C1233.53 1821.19 1233.72 1821.21 1233.92 1821.21ZM1242.69 1597.45L1231.48 1815.36L1177.01 1802.64L1169.07 1745.89C1167.03 1731.37 1159.66 1718.28 1148.33 1709.03L1074.57 1648.9C1055.09 1633.02 1046.05 1607.8 1050.96 1583.1L1055.56 1559.93L1242.69 1597.45Z" fill="#121212"/>
<path d="M1328.67 1682.56C1361.43 1665.38 1360.22 1636.8 1326.99 1618.93L1263.27 1584.65L1198.61 1527.37C1178.79 1509.82 1132.22 1506.46 1103.25 1520.32L1079.61 1531.62C1042.02 1549.6 1038.42 1580.2 1072.79 1600.22L1208.95 1679.53C1241.48 1698.48 1295.55 1699.94 1328.67 1682.56Z" fill="white"/>
<path d="M1272.6 1697.33C1294.22 1697.33 1314.56 1692.91 1329.87 1684.87C1346.13 1676.35 1355.11 1664.64 1355.18 1651.9C1355.25 1638.55 1345.67 1626.02 1328.21 1616.63L1264.75 1582.49L1200.32 1525.41C1188.81 1515.22 1168.33 1509.13 1145.54 1509.13C1129.45 1509.13 1114.03 1512.27 1102.13 1517.96L1078.49 1529.27C1058.44 1538.85 1047.08 1552.15 1046.49 1566.71C1045.95 1580.07 1054.83 1592.77 1071.48 1602.47L1207.64 1681.79C1224.6 1691.67 1248.28 1697.33 1272.6 1697.33ZM1145.54 1514.35C1166.78 1514.35 1186.45 1520.09 1196.88 1529.33L1261.54 1586.6C1261.69 1586.74 1261.86 1586.85 1262.03 1586.95L1325.76 1621.23C1341.22 1629.54 1350.05 1640.71 1349.99 1651.88C1349.93 1662.59 1341.93 1672.66 1327.47 1680.25C1312.89 1687.9 1293.4 1692.11 1272.6 1692.11C1249.16 1692.11 1226.44 1686.7 1210.25 1677.28L1074.08 1597.96C1059.18 1589.28 1051.23 1578.26 1051.68 1566.92C1052.18 1554.57 1062.77 1542.57 1080.73 1533.98L1104.36 1522.67C1115.58 1517.31 1130.21 1514.35 1145.54 1514.35Z" fill="#121212"/>
<path d="M1382.08 1872.05L1308.29 1916.04C1284.64 1930.14 1270.15 1955.7 1270.15 1983.31V2030.03L1227.12 2001.43C1201.12 1984.15 1185.41 1955 1185.23 1923.69L1184.92 1870.33L1233.95 1871.1C1248.04 1871.32 1261.93 1867.7 1274.13 1860.64L1353.1 1814.89V1840.02C1353.1 1849.26 1357.97 1857.81 1365.91 1862.5L1382.08 1872.05Z" fill="white"/>
<path d="M1270.15 2032.64C1270.57 2032.64 1270.99 2032.53 1271.38 2032.32C1272.22 2031.87 1272.75 2030.99 1272.75 2030.03V1983.31C1272.75 1956.75 1286.88 1931.84 1309.62 1918.28L1383.41 1874.29C1384.2 1873.82 1384.68 1872.97 1384.68 1872.04C1384.68 1871.12 1384.19 1870.27 1383.4 1869.8L1367.24 1860.26C1360.12 1856.06 1355.71 1848.31 1355.71 1840.02V1814.89C1355.71 1813.96 1355.21 1813.1 1354.41 1812.63C1353.61 1812.17 1352.61 1812.17 1351.81 1812.63L1272.84 1858.38C1261.4 1865 1248.38 1868.5 1235.17 1868.5L1234 1868.49L1184.96 1867.72C1184.36 1867.72 1183.59 1867.99 1183.1 1868.48C1182.6 1868.98 1182.32 1869.65 1182.33 1870.35L1182.64 1923.7C1182.82 1955.94 1198.92 1985.81 1225.7 2003.61L1268.72 2032.2C1269.15 2032.49 1269.65 2032.64 1270.15 2032.64ZM1376.97 1872.06L1306.96 1913.79C1282.65 1928.29 1267.55 1954.92 1267.55 1983.31V2025.17L1228.56 1999.26C1203.23 1982.43 1188 1954.17 1187.82 1923.68L1187.53 1872.99L1235.16 1873.72C1249.28 1873.72 1263.2 1869.98 1275.43 1862.9L1350.5 1819.41V1840.03C1350.5 1850.15 1355.9 1859.62 1364.59 1864.76L1376.97 1872.06Z" fill="#121212"/>
<path d="M1661.72 1774.09L1583.09 1795.05C1554.22 1802.75 1532.28 1826.32 1526.58 1855.75L1518.7 1896.44L1487.78 1834.36C1481.64 1822.03 1478.28 1808.49 1477.94 1794.7L1476.04 1717.86L1518.68 1731.82C1532.66 1736.4 1547.66 1736.92 1561.92 1733.31L1641.88 1713.06L1643.06 1712.74L1643.52 1740.23C1643.63 1746.34 1645.86 1752.22 1649.84 1756.85L1663.93 1773.2L1661.72 1774.09Z" fill="white"/>
<path d="M1518.71 1899.05C1518.82 1899.05 1518.94 1899.04 1519.05 1899.02C1520.16 1898.87 1521.05 1898.03 1521.26 1896.94L1529.14 1856.24C1534.61 1827.99 1556.05 1804.96 1583.76 1797.57L1662.38 1776.61L1664.89 1775.63C1665.67 1775.32 1666.25 1774.64 1666.45 1773.82C1666.65 1773.01 1666.45 1772.14 1665.9 1771.5L1651.81 1755.14C1648.24 1750.98 1646.22 1745.67 1646.13 1740.19L1645.67 1712.7C1645.65 1711.89 1645.27 1711.14 1644.64 1710.66C1644 1710.18 1643.17 1710.02 1642.4 1710.22L1641.22 1710.54L1561.29 1730.78C1547.55 1734.25 1532.94 1733.75 1519.49 1729.34L1476.84 1715.38C1476.04 1715.11 1475.17 1715.26 1474.49 1715.76C1473.81 1716.27 1473.42 1717.07 1473.44 1717.92L1475.34 1794.76C1475.69 1808.83 1479.18 1822.93 1485.46 1835.53L1516.38 1897.6C1516.83 1898.49 1517.73 1899.05 1518.71 1899.05ZM1659.46 1772.01L1582.43 1792.53C1552.8 1800.43 1529.88 1825.05 1524.03 1855.25L1517.62 1888.42L1490.12 1833.2C1484.18 1821.29 1480.87 1807.95 1480.54 1794.64L1478.73 1721.49L1517.88 1734.31C1532.26 1739.02 1547.88 1739.56 1562.56 1735.85L1640.53 1716.1L1640.93 1740.28C1641.04 1746.99 1643.51 1753.48 1647.88 1758.56L1659.46 1772.01Z" fill="#121212"/>
<path d="M1626.74 1538.96C1597.53 1554.29 1546.45 1553.56 1513.62 1537.52L1450.61 1506.73L1344.52 1474.75C1311.65 1464.84 1306.33 1442.98 1332.92 1430.26L1354.26 1420.06C1387.52 1404.15 1442.35 1404.18 1477.84 1420.31L1617.93 1483.96C1651.28 1499.11 1655.65 1523.81 1626.74 1538.96Z" fill="white"/>
<path d="M1573.66 1552.62C1573.67 1552.62 1573.67 1552.62 1573.66 1552.62C1594.71 1552.62 1613.99 1548.59 1627.95 1541.27C1641.51 1534.15 1648.83 1524.47 1648.53 1514C1648.19 1501.77 1637.42 1489.95 1619.01 1481.58L1478.92 1417.92C1461.36 1409.95 1438.64 1405.56 1414.94 1405.56C1391.47 1405.56 1369.53 1409.87 1353.15 1417.7L1331.82 1427.9C1319.27 1433.9 1312.74 1442.2 1313.43 1451.28C1314.27 1462.22 1325.33 1471.68 1343.78 1477.24L1449.87 1509.22L1512.49 1539.86C1529.33 1548.09 1551.05 1552.62 1573.66 1552.62ZM1414.94 1410.77C1437.92 1410.77 1459.88 1415 1476.78 1422.67L1616.87 1486.33C1633.4 1493.85 1643.05 1503.98 1643.34 1514.14C1643.57 1522.52 1637.25 1530.51 1625.54 1536.65C1612.31 1543.59 1593.89 1547.41 1573.67 1547.41C1552.15 1547.41 1530.68 1542.95 1514.76 1535.17L1451.76 1504.38L1345.27 1472.24C1329.23 1467.41 1319.27 1459.42 1318.61 1450.88C1318.1 1444.11 1323.58 1437.62 1334.05 1432.61L1355.38 1422.41C1371.07 1414.9 1392.23 1410.77 1414.94 1410.77Z" fill="#121212"/>
<path d="M2467.34 2112.32C2468.51 2111.25 2470.09 2110.77 2471.64 2111.01L2663.98 2140.61C2667.54 2140.78 2671.09 2141.34 2674.56 2142.25C2675.14 2142.31 2675.7 2142.46 2676.23 2142.71C2679.9 2143.8 2683.36 2145.25 2686.53 2147.02L2689.17 2148.49C2689.25 2148.52 2689.32 2148.56 2689.4 2148.6L2741.54 2176.71C2744.01 2178.06 2751.49 2183.59 2744.47 2197.61C2743.48 2200.34 2740.85 2202.15 2737.45 2202.52C2744.44 2207.75 2743.16 2221.19 2739.26 2228.08C2738.2 2230.52 2735.81 2232.19 2732.81 2232.67C2734.9 2239.22 2732 2248.26 2728.1 2253.63C2727.53 2254.53 2726.78 2255.27 2725.88 2255.84L2729.65 2258.67C2735.65 2263.7 2735.71 2272.78 2729.79 2280.75L2729.78 2280.74C2728.29 2282.83 2724.69 2286.06 2719.41 2286.06C2717 2286.06 2714.58 2285.37 2712.23 2284.03L2703.06 2278.87C2702.9 2280.02 2702.66 2281.18 2702.22 2282.32L2700.7 2286.34C2697.71 2294.23 2688.92 2298.19 2681.06 2295.19L2645.4 2281.56C2644.05 2281.05 2642.94 2280.21 2642.05 2279.19C2641.81 2279.16 2641.54 2279.19 2641.37 2279.04C2640.54 2278.28 2622.34 2257.86 2616.2 2247.23L2606.82 2229.7C2604.74 2225.79 2602.75 2222.05 2601.35 2217.96L2478.31 2220.97C2475.32 2221.03 2473.22 2218.92 2473 2216.16L2467.58 2145.01L2465.66 2116.53C2465.56 2114.94 2466.18 2113.39 2467.34 2112.32Z" fill="white"/>
<path d="M2686.48 2298.79C2693.83 2298.79 2700.52 2294.15 2703.14 2287.26L2704.66 2283.24C2704.71 2283.1 2704.76 2282.97 2704.8 2282.83L2710.97 2286.3C2713.7 2287.87 2716.55 2288.67 2719.42 2288.67C2725.11 2288.67 2729.47 2285.52 2731.72 2282.49C2731.78 2282.43 2731.83 2282.37 2731.88 2282.3C2738.66 2273.16 2738.43 2262.62 2731.31 2256.65L2729.91 2255.59C2730.04 2255.41 2730.17 2255.22 2730.3 2255.03C2734.04 2249.87 2736.93 2241.52 2735.9 2234.52C2738.54 2233.48 2740.57 2231.6 2741.65 2229.12C2745.35 2222.6 2746.79 2210.96 2742.15 2203.81C2744.39 2202.65 2746.08 2200.82 2746.92 2198.51C2755.08 2182.21 2744.91 2175.58 2742.79 2174.42L2687.79 2144.73C2684.46 2142.88 2680.83 2141.35 2676.97 2140.2C2676.51 2139.96 2675.67 2139.73 2674.81 2139.65C2671.58 2138.77 2667.84 2138.18 2664.1 2138L2472.04 2108.43C2469.73 2108.07 2467.32 2108.8 2465.58 2110.39C2463.83 2112.01 2462.91 2114.31 2463.08 2116.69L2465 2145.17L2470.42 2216.34C2470.75 2220.53 2474.01 2223.56 2478.2 2223.56L2599.56 2220.59C2600.95 2224.16 2602.7 2227.45 2604.54 2230.9L2613.92 2248.44C2620.16 2259.25 2638.52 2279.94 2639.63 2280.95C2640.01 2281.3 2640.42 2281.49 2640.79 2281.61C2641.87 2282.66 2643.11 2283.46 2644.48 2283.99L2680.14 2297.61C2682.19 2298.39 2684.31 2298.79 2686.48 2298.79ZM2703.07 2276.26C2702.67 2276.26 2702.27 2276.35 2701.9 2276.53C2701.13 2276.92 2700.6 2277.67 2700.49 2278.52C2700.35 2279.61 2700.12 2280.54 2699.81 2281.38L2698.28 2285.4C2695.88 2291.72 2688.35 2295.17 2681.99 2292.73L2646.33 2279.11C2645.47 2278.78 2644.69 2278.22 2644.02 2277.45C2643.67 2277.05 2643.21 2276.77 2642.7 2276.64C2639.67 2273.37 2623.93 2255.36 2618.46 2245.9L2609.12 2228.45C2607.08 2224.6 2605.15 2220.98 2603.82 2217.09C2603.46 2216.03 2602.47 2215.33 2601.36 2215.33C2601.34 2215.33 2601.32 2215.33 2601.29 2215.33L2478.26 2218.34C2476.74 2218.34 2475.72 2217.4 2475.6 2215.93L2468.27 2116.33C2468.21 2115.53 2468.51 2114.77 2469.1 2114.23C2469.58 2113.78 2470.2 2113.54 2470.85 2113.54L2663.58 2143.17C2667.23 2143.36 2670.61 2143.88 2673.9 2144.75C2674.59 2144.85 2674.87 2144.93 2675.14 2145.05C2678.98 2146.22 2682.27 2147.6 2685.26 2149.27L2687.91 2150.74L2740.31 2178.99C2742.8 2180.34 2747.98 2184.78 2742.15 2196.42C2741.4 2198.44 2739.58 2199.64 2737.18 2199.9C2736.12 2200.02 2735.23 2200.78 2734.95 2201.81C2734.67 2202.85 2735.05 2203.95 2735.91 2204.59C2741.47 2208.75 2740.43 2220.73 2737.01 2226.77C2736.2 2228.61 2734.56 2229.72 2732.4 2230.07C2731.66 2230.19 2731 2230.63 2730.6 2231.28C2730.21 2231.92 2730.11 2232.72 2730.34 2233.44C2732.17 2239.15 2729.46 2247.3 2726 2252.07C2725.55 2252.77 2725.07 2253.24 2724.49 2253.61C2723.77 2254.07 2723.32 2254.86 2723.29 2255.72C2723.26 2256.57 2723.65 2257.39 2724.33 2257.9L2728.09 2260.73C2732.83 2264.7 2732.76 2272.21 2727.86 2278.97C2727.79 2279.04 2727.73 2279.12 2727.67 2279.2C2727.36 2279.64 2724.52 2283.43 2719.42 2283.43C2717.47 2283.43 2715.48 2282.87 2713.52 2281.75L2704.33 2276.57C2703.94 2276.37 2703.5 2276.26 2703.07 2276.26Z" fill="#121212"/>
<path d="M2606.49 2227.05L2604.22 2227.14V2159.34L2606.49 2227.05Z" fill="black"/>
<path d="M2604.22 2229.75C2604.26 2229.75 2604.3 2229.75 2604.33 2229.75L2606.6 2229.66C2608.03 2229.6 2609.14 2228.4 2609.09 2226.97L2606.82 2159.25C2606.77 2157.83 2605.85 2156.67 2604.18 2156.73C2602.76 2156.76 2601.63 2157.92 2601.63 2159.34V2227.15C2601.63 2227.86 2601.92 2228.53 2602.42 2229.03C2602.91 2229.49 2603.55 2229.75 2604.22 2229.75Z" fill="#121212"/>
<path d="M2603.23 2129.53L2604.22 2159.34V2227.14L2434.47 2233.96V2100.65L2603.23 2129.53Z" fill="#121212"/>
<path d="M2434.47 2236.57C2434.51 2236.57 2434.55 2236.57 2434.58 2236.57L2604.33 2229.75C2605.73 2229.69 2606.82 2228.55 2606.82 2227.14V2159.34L2605.83 2129.44C2605.78 2128.21 2604.88 2127.17 2603.66 2126.96L2434.91 2098.08C2434.16 2097.95 2433.38 2098.16 2432.8 2098.66C2432.22 2099.15 2431.87 2099.88 2431.87 2100.65V2233.96C2431.87 2234.67 2432.17 2235.35 2432.67 2235.85C2433.16 2236.31 2433.8 2236.57 2434.47 2236.57ZM2601.63 2224.64L2437.07 2231.25V2103.74L2600.7 2131.75L2601.63 2159.43V2224.64Z" fill="#121212"/>
<path d="M2054.97 2747.04L1968.64 2695.7L2006.96 2633.49L2113.51 2695.72L2114.43 2694.47L2117.92 2697.3L2117.62 2697.89C2120.07 2698.9 2122.69 2699.48 2125.39 2699.48C2125.96 2699.48 2126.53 2699.46 2126.99 2699.42L2139.83 2698.08C2149.2 2697.12 2158.56 2698.42 2167.29 2701.85L2179.74 2706.71L2236.5 2715.19C2239.1 2715.32 2241.49 2716.46 2243.24 2718.39C2244.99 2720.33 2245.87 2722.83 2245.74 2725.44C2245.71 2725.91 2245.66 2726.37 2245.56 2726.87C2244.37 2732.39 2239.85 2736.96 2232.68 2739.79C2227.27 2741.73 2221.29 2742.14 2215.83 2741.05L2197.18 2737.54C2195.02 2737.15 2192.77 2737.62 2190.95 2738.8L2190.2 2739.44C2188.9 2740.5 2188.07 2742 2187.89 2743.68C2187.71 2745.36 2188.19 2747 2189.24 2748.32C2189.45 2748.58 2189.67 2748.82 2189.92 2749.04L2258.11 2810.79C2264.16 2817.36 2265.35 2826.59 2260.8 2833.55C2258.05 2837.18 2252.23 2837.79 2248.97 2835.29L2200.1 2799.62L2240.52 2853.68L2240.82 2854.13C2245.39 2861.79 2244.72 2871.07 2238.85 2877.01C2235.4 2879.94 2229.72 2879.45 2226.86 2876.05L2188.38 2833.94L2212 2878.23L2212.23 2878.7C2215.63 2886.98 2213.57 2896.05 2206.95 2900.96C2203.08 2903.46 2197.55 2902.26 2195.07 2898.39L2160.32 2846.11L2169.13 2880.66C2171.5 2889.27 2168.34 2898.02 2161.05 2902.15C2159.91 2902.68 2158.7 2902.95 2157.46 2902.95C2154.12 2902.95 2151.07 2900.99 2149.88 2898.35L2129.51 2838.31C2127.68 2832.99 2124.44 2828.27 2120.13 2824.64L2101.46 2808.73L2100.95 2808.23C2092.2 2798.43 2083.11 2790.44 2076.53 2779.07L2076.28 2778.48L2076.05 2778.92L2058.21 2770.17L2067.1 2758.19C2063.9 2753.68 2059.81 2749.85 2054.97 2747.04Z" fill="white"/>
<path d="M2157.46 2905.56C2159.09 2905.56 2160.66 2905.21 2162.14 2904.52C2170.63 2899.72 2174.37 2889.89 2171.63 2879.97L2166.61 2860.27L2192.91 2899.83C2196 2904.65 2203.47 2906.31 2208.36 2903.15C2215.97 2897.52 2218.48 2887.1 2214.63 2877.71L2214.35 2877.11L2200.39 2850.95L2224.95 2877.81C2228.47 2882.02 2236.17 2882.71 2240.53 2879C2247.37 2872.08 2248.31 2861.62 2243.04 2852.79L2242.68 2852.23L2212.55 2811.93L2247.44 2837.39C2249.11 2838.67 2251.39 2839.4 2253.81 2839.4C2257.45 2839.4 2260.84 2837.8 2262.87 2835.12C2268.18 2827.02 2266.99 2816.58 2260.02 2809.02L2191.65 2747.1C2191.5 2746.96 2191.38 2746.82 2191.26 2746.68C2190.65 2745.91 2190.37 2744.94 2190.47 2743.96C2190.58 2742.98 2191.06 2742.1 2191.83 2741.48L2192.64 2740.78C2193.54 2740.23 2195.21 2739.83 2196.72 2740.11L2215.35 2743.61C2221.18 2744.78 2227.83 2744.3 2233.55 2742.24C2241.59 2739.08 2246.73 2733.82 2248.1 2727.41C2248.24 2726.76 2248.31 2726.17 2248.34 2725.58C2248.5 2722.26 2247.38 2719.09 2245.17 2716.63C2242.96 2714.18 2239.93 2712.74 2236.64 2712.57L2180.42 2704.17L2168.23 2699.41C2159.11 2695.83 2149.38 2694.48 2139.56 2695.48L2126.72 2696.82C2126.38 2696.84 2125.88 2696.86 2125.39 2696.86C2123.66 2696.86 2121.93 2696.59 2120.21 2696.05C2120.05 2695.75 2119.83 2695.48 2119.55 2695.26L2116.07 2692.43C2115.52 2691.99 2114.83 2691.78 2114.1 2691.87C2113.67 2691.93 2113.26 2692.09 2112.91 2692.34L2008.27 2631.22C2007.06 2630.51 2005.49 2630.9 2004.75 2632.1L1966.43 2694.31C1966.06 2694.91 1965.95 2695.63 1966.11 2696.31C1966.28 2696.98 1966.71 2697.57 1967.31 2697.93L2053.64 2749.27C2057.57 2751.54 2060.99 2754.54 2063.86 2758.18L2056.13 2768.59C2055.66 2769.21 2055.5 2770.01 2055.68 2770.77C2055.86 2771.52 2056.37 2772.15 2057.07 2772.49L2074.8 2781.18C2079.8 2789.54 2085.77 2795.83 2092.08 2802.48C2094.38 2804.91 2096.71 2807.36 2099.02 2809.95L2099.65 2810.58L2118.44 2826.6C2122.4 2829.93 2125.37 2834.27 2127.05 2839.14L2147.41 2899.17C2149.18 2903.09 2153.17 2905.56 2157.46 2905.56ZM2160.32 2843.49C2159.97 2843.49 2159.6 2843.57 2159.26 2843.72C2158.11 2844.23 2157.49 2845.51 2157.8 2846.75L2166.61 2881.3C2168.71 2888.93 2165.96 2896.37 2159.77 2899.88C2159.17 2900.15 2158.33 2900.34 2157.46 2900.34C2155.24 2900.34 2153.05 2899.05 2152.24 2897.27L2131.98 2837.46C2129.99 2831.69 2126.47 2826.56 2121.8 2822.64L2102.77 2806.36C2100.56 2803.87 2098.19 2801.37 2095.85 2798.91C2089.48 2792.19 2083.46 2785.85 2078.79 2777.77L2078.69 2777.47C2078.3 2776.53 2077.41 2775.91 2076.4 2775.87C2076.21 2775.87 2076.03 2775.88 2075.84 2775.91L2062.18 2769.21L2069.2 2759.75C2069.88 2758.85 2069.89 2757.61 2069.24 2756.68C2065.72 2751.74 2061.36 2747.73 2056.29 2744.79L1972.26 2694.82L2007.85 2637.03L2112.21 2697.99C2113 2698.44 2113.95 2698.45 2114.71 2698.05L2115.06 2698.33C2115.09 2698.49 2115.13 2698.65 2115.18 2698.79C2115.43 2699.48 2115.96 2700.03 2116.63 2700.31C2119.5 2701.49 2122.45 2702.09 2125.39 2702.09C2126.04 2702.09 2126.68 2702.06 2127.21 2702.02L2140.1 2700.68C2149.05 2699.76 2157.98 2701 2166.34 2704.28L2178.81 2709.14C2178.99 2709.21 2179.17 2709.26 2179.36 2709.29L2236.13 2717.77C2238.28 2717.89 2240.03 2718.72 2241.32 2720.14C2242.59 2721.56 2243.24 2723.4 2243.15 2725.31C2243.13 2725.63 2243.09 2725.96 2243.02 2726.32C2242.03 2730.96 2238.02 2734.88 2231.73 2737.37C2227 2739.06 2221.35 2739.5 2216.34 2738.49L2197.66 2734.98C2194.75 2734.45 2191.91 2735.07 2189.53 2736.62L2188.52 2737.46C2186.73 2738.9 2185.57 2741.02 2185.31 2743.39C2185.05 2745.76 2185.73 2748.09 2187.22 2749.95C2187.52 2750.32 2187.84 2750.67 2188.19 2750.98L2256.38 2812.72C2261.53 2818.34 2262.51 2826.19 2258.64 2832.11C2257.11 2834.12 2252.66 2834.83 2250.55 2833.21L2201.63 2797.5C2200.6 2796.74 2199.16 2796.86 2198.25 2797.78C2197.35 2798.69 2197.26 2800.14 2198.03 2801.17L2238.66 2855.57C2242.63 2862.21 2241.99 2870.13 2237.01 2875.17C2235.15 2876.73 2230.71 2876.57 2228.86 2874.36L2190.3 2832.17C2189.42 2831.2 2187.95 2831.05 2186.89 2831.8C2185.82 2832.57 2185.48 2834.01 2186.1 2835.16L2209.89 2879.81C2212.82 2886.98 2211.06 2894.67 2205.42 2898.85C2203.23 2900.25 2198.91 2899.52 2197.28 2896.96L2162.5 2844.65C2161.99 2843.91 2161.17 2843.49 2160.32 2843.49Z" fill="#121212"/>
<path d="M1558.49 2024.89L1789.24 1930.82C1796.16 1928 1803.95 1928.31 1810.63 1931.65L2040.07 2046.65L2039.84 2046.83L2211.45 2132.96L1903.62 2426.98L1978.91 2584.64L1982.25 2587.36L1981.01 2589.04L1991.37 2610.74L1950.17 2630.57L1902.99 2694.08L1872.22 2679C1862.8 2673.49 1856.58 2664.99 1853.67 2655.57C1853.12 2654.73 1852.54 2653.9 1852.09 2652.97L1737.73 2413.47L1664.99 2307.03L1488.72 2185.39C1481.67 2180.52 1477.46 2172.48 1477.46 2163.9V2145.7C1477.45 2092.63 1509.5 2044.85 1558.49 2024.89Z" fill="white"/>
<path d="M1903 2696.69C1903.79 2696.69 1904.58 2696.32 1905.08 2695.64L1951.87 2632.64L1992.49 2613.09C1993.78 2612.47 1994.33 2610.91 1993.71 2609.61L1984.03 2589.33L1984.34 2588.92C1985.17 2587.79 1984.98 2586.21 1983.89 2585.33L1981 2582.99L1906.78 2427.56L2213.25 2134.85C2213.86 2134.27 2214.15 2133.42 2214.02 2132.58C2213.9 2131.74 2213.37 2131.01 2212.61 2130.63L2042.02 2045.02C2041.82 2044.73 2041.55 2044.49 2041.23 2044.33L1811.79 1929.32C1804.53 1925.68 1795.79 1925.35 1788.27 1928.41L1557.51 2022.47C1507.3 2042.94 1474.86 2091.31 1474.86 2145.71V2163.9C1474.86 2173.35 1479.49 2182.19 1487.25 2187.54L1663.13 2308.91L1735.6 2414.94L1849.76 2654.1C1850.18 2654.98 1850.71 2655.79 1851.24 2656.59C1854.45 2666.87 1861.46 2675.71 1870.93 2681.26L1901.86 2696.43C1902.22 2696.61 1902.61 2696.69 1903 2696.69ZM1987.91 2609.51L1949.04 2628.21C1948.66 2628.4 1948.33 2628.67 1948.08 2629.01L1902.2 2690.79L1873.37 2676.66C1865.19 2671.87 1859.02 2664.07 1856.15 2654.81C1856.08 2654.57 1855.98 2654.35 1855.84 2654.15C1855.84 2654.14 1855.54 2653.71 1855.54 2653.7C1855.15 2653.11 1854.74 2652.51 1854.43 2651.85L1740.06 2412.35L1667.12 2305.57C1666.94 2305.3 1666.71 2305.08 1666.45 2304.89L1490.18 2183.25C1483.83 2178.87 1480.04 2171.64 1480.04 2163.91V2145.71C1480.04 2093.45 1511.21 2046.97 1559.45 2027.31L1790.21 1933.24C1796.35 1930.74 1803.51 1931.01 1809.45 1933.99L2037.88 2048.48C2038.08 2048.77 2038.34 2049.01 2038.67 2049.17L2206.97 2133.64L1901.81 2425.09C1901 2425.87 1900.77 2427.09 1901.26 2428.11L1976.55 2585.78C1976.71 2586.13 1976.96 2586.43 1977.26 2586.68L1978.69 2587.84C1978.32 2588.56 1978.29 2589.42 1978.65 2590.17L1987.91 2609.51Z" fill="#121212"/>
<path d="M2114.43 2694.48L2058.22 2770.17L1902.99 2694.08L1982.26 2587.36L2114.43 2694.48Z" fill="#121212"/>
<path d="M2058.22 2772.78C2059.01 2772.78 2059.8 2772.41 2060.29 2771.73L2116.51 2696.04C2117.35 2694.92 2117.15 2693.33 2116.06 2692.45L1983.89 2585.33C1983.33 2584.89 1982.62 2584.69 1981.93 2584.77C1981.23 2584.86 1980.59 2585.23 1980.17 2585.8L1900.91 2692.53C1900.44 2693.15 1900.29 2693.95 1900.46 2694.7C1900.64 2695.46 1901.15 2696.09 1901.85 2696.43L2057.07 2772.52C2057.44 2772.69 2057.83 2772.78 2058.22 2772.78ZM2110.86 2694.93L2057.42 2766.87L1906.96 2693.12L1982.73 2591.09L2110.86 2694.93Z" fill="#121212"/>
<path d="M2093.45 2097.18L2375.25 2091.25C2376.75 2091.21 2378.17 2091.49 2379.53 2091.91C2380.73 2091.69 2381.99 2091.67 2383.26 2091.88L2434.48 2100.65V2233.96L2385.8 2235.92L2385.34 2235.39L2096.47 2241.47L2093.45 2097.18Z" fill="white"/>
<path d="M2096.47 2244.08C2096.48 2244.08 2096.5 2244.08 2096.52 2244.08L2384.25 2238.02C2384.73 2238.37 2385.4 2238.54 2385.89 2238.52L2434.57 2236.57C2435.97 2236.51 2437.07 2235.36 2437.07 2233.96V2100.65C2437.07 2099.37 2436.15 2098.29 2434.9 2098.07L2383.68 2089.31C2382.34 2089.08 2380.99 2089.07 2379.69 2089.23C2378.22 2088.83 2376.83 2088.63 2375.47 2088.63L2093.38 2094.56C2092.69 2094.58 2092.04 2094.87 2091.56 2095.37C2091.08 2095.87 2090.82 2096.54 2090.84 2097.22L2093.86 2241.52C2093.9 2242.95 2095.06 2244.08 2096.47 2244.08ZM2385.34 2232.78C2385.31 2232.78 2385.3 2232.78 2385.28 2232.78L2099.01 2238.81L2096.1 2099.73L2375.3 2093.85C2376.4 2093.91 2377.56 2094.03 2378.75 2094.4C2379.14 2094.52 2379.56 2094.54 2379.97 2094.47C2380.88 2094.3 2381.84 2094.28 2382.8 2094.45L2431.86 2102.85V2231.46L2386.84 2233.27C2386.41 2232.95 2385.89 2232.78 2385.34 2232.78Z" fill="#121212"/>
<path d="M1872.67 2263.36C1872.67 2334.45 1912.16 2396.32 1970.31 2427.98C1991.41 2439.56 2014.95 2447.07 2039.94 2449.62C2046.28 2450.36 2052.73 2450.67 2059.28 2450.67C2156.24 2450.67 2235.95 2376.39 2245 2281.46C2245.57 2275.51 2245.88 2269.46 2245.88 2263.36C2245.88 2257.52 2245.62 2251.78 2245.1 2246.09C2236.42 2150.74 2156.5 2076.05 2059.28 2076.05C1956.23 2076.05 1872.67 2159.92 1872.67 2263.36Z" fill="white"/>
<path d="M2059.28 2453.28C2157.31 2453.28 2238.27 2379.51 2247.58 2281.71C2248.17 2275.52 2248.48 2269.34 2248.48 2263.36C2248.48 2257.52 2248.21 2251.63 2247.69 2245.86C2238.74 2147.56 2157.74 2073.44 2059.28 2073.44C1954.95 2073.44 1870.07 2158.63 1870.07 2263.36C1870.07 2333.07 1908.01 2397.02 1969.08 2430.27C1990.95 2442.28 2014.71 2449.67 2039.68 2452.22C2045.85 2452.93 2052.27 2453.28 2059.28 2453.28ZM2059.28 2078.65C2155.04 2078.65 2233.81 2150.74 2242.51 2246.33C2243.03 2251.95 2243.28 2257.68 2243.28 2263.36C2243.28 2269.18 2242.98 2275.18 2242.4 2281.21C2233.35 2376.33 2154.62 2448.07 2059.28 2448.07C2052.46 2448.07 2046.24 2447.73 2040.24 2447.04C2015.93 2444.55 1992.83 2437.37 1971.56 2425.69C1912.16 2393.35 1875.27 2331.15 1875.27 2263.36C1875.27 2161.51 1957.82 2078.65 2059.28 2078.65Z" fill="#121212"/>
<path d="M1970.31 2427.98C1991.41 2439.56 2014.95 2447.07 2039.94 2449.62C2046.28 2450.36 2052.73 2450.67 2059.28 2450.67C2156.24 2450.67 2235.95 2376.39 2245 2281.46C2233.36 2280.15 2221.4 2279.48 2209.3 2279.48C2091.8 2279.48 1993.64 2343.16 1970.31 2427.98Z" fill="#121212"/>
<path d="M2059.28 2453.28C2157.31 2453.28 2238.27 2379.51 2247.58 2281.71C2247.71 2280.29 2246.69 2279.03 2245.28 2278.87C2233.45 2277.54 2221.34 2276.87 2209.3 2276.87C2093.35 2276.87 1991.79 2340.13 1967.8 2427.29C1967.48 2428.46 1968.01 2429.69 1969.06 2430.27C1990.95 2442.29 2014.71 2449.67 2039.67 2452.23C2045.85 2452.93 2052.27 2453.28 2059.28 2453.28ZM2242.14 2283.77C2231.92 2377.61 2153.76 2448.06 2059.28 2448.06C2052.46 2448.06 2046.24 2447.73 2040.24 2447.03C2016.62 2444.62 1994.15 2437.77 1973.38 2426.67C1997.75 2342.77 2096.53 2282.08 2209.3 2282.08C2220.28 2282.08 2231.31 2282.65 2242.14 2283.77Z" fill="#121212"/>
<path d="M2704.26 2279.51L2657.49 2255.28" stroke="#121212" stroke-width="5.20626" stroke-miterlimit="10" stroke-linecap="round" stroke-linejoin="round"/>
</g>
<g clip-path="url(#clip5_22_37)">
<path d="M998.835 662.966C1050.95 695.671 1095.91 744.056 1157.58 812.924L1162 817.855L1152.16 826.619L1147.75 821.693C1043.82 705.639 988.356 648.928 864.342 627.966C772.768 612.488 686.288 638.72 633.008 698.138C585.855 750.721 571.668 820.879 593.062 895.686C606.587 942.972 622.548 985.053 636.632 1022.18C662.652 1090.78 681.452 1140.34 662.845 1168.51C653.291 1182.98 634.584 1190.59 605.654 1191.77C589.781 1192.42 574.643 1192.83 560.005 1193.23C468.751 1195.71 402.821 1197.5 351.77 1252.91L347.304 1257.74L337.554 1248.79L342.017 1243.95C396.831 1184.45 465.099 1182.6 559.584 1180.04C574.179 1179.64 589.27 1179.23 605.048 1178.59C629.442 1177.59 644.736 1171.9 651.795 1161.22C666.698 1138.66 647.974 1089.3 624.268 1026.8C610.09 989.429 594.025 947.072 580.35 899.253C557.667 819.94 572.862 745.381 623.14 689.32C679.451 626.522 770.422 598.724 866.492 614.963C920.203 624.041 961.37 639.45 998.835 662.966Z" fill="#121212"/>
</g>
<g clip-path="url(#clip6_22_37)">
<path d="M1068.64 579.018C1068.14 580.711 1067.71 582.373 1067.35 583.99L1068.64 579.018Z" fill="#EEEEEE"/>
<path d="M1152.1 541.667C1152.01 541.689 1151.99 541.694 1152.1 541.667V541.667Z" fill="#EEEEEE"/>
<path d="M1431.35 548.3C1420.24 533.756 1407.71 523.388 1407.71 523.388C1407.71 523.388 1402.91 511.612 1390.32 502.541C1352.68 475.412 1279.05 508.235 1262.32 513.436C1241 520.065 1145.13 545.572 1096.49 551.862C1086.26 594.953 1141.95 606.363 1095.32 600.845C1072.32 596.023 1063.89 602.9 1067.76 584.594L1067.72 584.667L1067.89 584.003C1068.25 582.391 1083.72 583.592 1084.22 581.917C1084.22 581.917 1160.88 571.026 1103.85 550.598C1077.38 541.116 1024.08 539.282 1024.08 539.282L1012.76 543.292C1012.76 543.292 967.304 511.702 914.066 478.595C889.651 463.415 871.182 473.046 871.182 473.046L839.393 484.831L936.02 652.795L926.072 676.185L994.416 767.648L1031.78 777.889L1075.13 766.519C1075.13 766.519 1239.98 728.96 1332.31 675.471C1332.31 675.471 1359.67 661.789 1373.85 650.077C1403.09 625.937 1408.51 611.673 1421.68 596.714C1442.61 572.954 1437.24 555.989 1431.35 548.3Z" fill="white"/>
<path d="M1031.78 780.147C1031.58 780.147 1031.38 780.12 1031.18 780.066L993.822 769.825C993.34 769.694 992.917 769.4 992.611 768.998L924.271 677.535C923.794 676.889 923.686 676.036 924.001 675.295L933.508 652.944L837.448 485.965C837.115 485.387 837.052 484.696 837.277 484.068C837.507 483.441 837.993 482.948 838.614 482.718L870.403 470.928C870.403 470.91 876.52 467.777 886.324 467.777C896.02 467.777 905.757 470.77 915.259 476.676C963.739 506.83 1006.28 536.072 1013.1 540.781L1023.33 537.156C1023.6 537.061 1023.87 537.016 1024.16 537.029C1026.34 537.106 1077.97 538.98 1104.51 548.435C1153.69 540.818 1240.43 517.875 1261.66 511.278C1263.79 510.619 1266.84 509.503 1270.64 508.122C1288.36 501.674 1321.33 489.667 1351.37 489.667C1367.93 489.667 1381.48 493.383 1391.65 500.707C1403.22 509.052 1408.44 519.505 1409.56 522.002C1411.88 523.966 1423 533.661 1433.14 546.931C1437 551.975 1447.7 570.588 1423.37 598.213C1419.43 602.688 1416.18 607.117 1412.74 611.809C1404.82 622.609 1395.85 634.851 1375.28 651.829C1361.07 663.569 1334.45 676.939 1333.32 677.499C1241.88 730.478 1077.28 768.353 1075.63 768.728L1032.35 780.079C1032.16 780.124 1031.97 780.147 1031.78 780.147ZM995.753 765.675L1031.79 775.555L1074.55 764.339C1076.27 763.946 1240.22 726.224 1331.19 673.52C1331.58 673.317 1358.6 659.753 1372.42 648.338C1392.56 631.717 1401.36 619.72 1409.12 609.131C1412.61 604.358 1415.93 599.847 1420 595.224C1441.45 570.868 1433.84 555.258 1429.57 549.681C1418.75 535.526 1406.4 525.24 1406.28 525.136C1405.99 524.901 1405.77 524.594 1405.62 524.251C1405.58 524.138 1400.87 512.931 1389.01 504.378C1379.63 497.619 1366.97 494.187 1351.37 494.187C1322.12 494.187 1289.63 506.017 1272.17 512.371C1268.29 513.784 1265.16 514.917 1262.99 515.595C1244.58 521.316 1164.94 542.746 1112.68 551.682C1122.82 556.202 1127.47 560.658 1127.19 565.485C1126.84 571.509 1118.62 576.48 1102.09 580.648C1105.16 586.396 1109.09 590.731 1112.06 594.004C1115.29 597.554 1117.23 599.694 1116.19 602.064C1115.28 604.119 1112.74 604.403 1110.13 604.403C1107.27 604.403 1102.9 604.024 1095.05 603.094C1088.38 601.703 1083.09 601.292 1078.84 600.967C1072.58 600.484 1068.45 600.163 1066.16 597.084C1064.32 594.628 1064.12 591.087 1065.48 584.536C1065.48 584.396 1065.51 584.251 1065.54 584.111L1065.71 583.447C1066.25 581.009 1069.05 580.932 1075.82 580.743C1078.12 580.679 1081.51 580.585 1082.67 580.296C1083 579.975 1083.43 579.758 1083.9 579.691C1083.96 579.682 1089.16 578.937 1095.72 577.505C1092.61 569.287 1092.12 560.505 1094.3 551.343C1094.4 550.928 1094.61 550.562 1094.9 550.273C1068.67 543.491 1028.96 541.743 1024.43 541.563L1013.52 545.428C1012.82 545.667 1012.08 545.568 1011.48 545.152C1011.03 544.836 965.463 513.215 912.887 480.519C904.114 475.06 895.174 472.292 886.329 472.292C877.7 472.292 872.275 475.024 872.221 475.051L842.679 486.023L937.969 651.666C938.324 652.28 938.369 653.03 938.09 653.68L928.651 675.868L995.753 765.675ZM1069.86 585.579C1068.88 590.356 1068.86 593.151 1069.77 594.37C1070.84 595.811 1074.35 596.081 1079.2 596.456C1083.57 596.795 1089.02 597.215 1095.79 598.633C1104.33 599.635 1109.08 599.969 1111.21 599.852C1110.55 599.026 1109.58 597.96 1108.74 597.034C1105.61 593.589 1101 588.509 1097.58 581.714C1091.85 582.991 1087.08 583.768 1085.29 584.043C1083.79 585.032 1080.85 585.114 1075.95 585.249C1074 585.303 1071.24 585.38 1069.86 585.579ZM1098.34 553.894C1096.74 561.814 1097.34 569.396 1100.15 576.471C1116.48 572.439 1122.53 568.045 1122.7 565.214C1122.79 563.638 1121.14 559.326 1104.05 553.072C1102.09 553.37 1100.19 553.646 1098.34 553.894Z" fill="#121212"/>
<path d="M1232.45 795.183C1227.9 757.195 1234.67 750.878 1251.76 734.411C1266.33 720.372 1301.13 697.637 1332.28 674.966C1242.91 718.413 1189.2 721.745 1075.11 766.52L1014.59 777.795L1201.14 924.956L1227.48 905.91C1227.48 905.91 1239.11 898.468 1243.26 885.979C1250.32 864.743 1237.01 833.167 1232.45 795.183Z" fill="white"/>
<path d="M1201.14 927.209C1200.65 927.209 1200.16 927.046 1199.75 926.726L1013.2 779.569C1012.5 779.023 1012.19 778.115 1012.4 777.253C1012.62 776.39 1013.31 775.736 1014.18 775.573L1074.71 764.298C1124.73 744.62 1163.91 732.754 1198.49 722.278C1243.05 708.781 1281.53 697.123 1331.3 672.929C1332.34 672.419 1333.61 672.798 1334.21 673.801C1334.81 674.803 1334.54 676.099 1333.6 676.79C1323.88 683.865 1313.8 690.946 1304.09 697.768C1283.07 712.538 1263.22 726.491 1253.32 736.032C1236.49 752.242 1230.29 758.22 1234.68 794.908C1236.3 808.418 1238.99 820.867 1241.58 832.9C1246.16 854.136 1250.11 872.478 1245.4 886.688C1241.03 899.787 1229.18 907.486 1228.68 907.806L1202.45 926.78C1202.07 927.069 1201.61 927.209 1201.14 927.209ZM1019.89 779.1L1201.2 922.129L1226.16 904.077C1226.37 903.937 1237.28 896.811 1241.12 885.261C1245.46 872.225 1241.62 854.448 1237.18 833.858C1234.69 822.285 1231.86 809.172 1230.21 795.45C1225.55 756.527 1232.69 749.646 1249.96 733.02C1260.35 723 1280.35 708.948 1301.51 694.075C1304.71 691.822 1307.96 689.546 1311.21 687.247C1271.32 704.939 1237.75 715.107 1199.78 726.604C1165.29 737.052 1126.19 748.896 1075.93 768.624L1019.89 779.1Z" fill="#121212"/>
<path d="M1407.71 523.388C1407.71 523.388 1411.84 535.684 1410.12 546.679C1409.34 551.677 1414.51 553.393 1416.8 551.655C1419.88 549.302 1419.34 531.755 1407.71 523.388Z" fill="#121212"/>
<path d="M1366.4 518.626C1368.58 515.588 1367.04 510.747 1362.97 507.814C1358.9 504.881 1353.83 504.966 1351.66 508.004C1349.48 511.042 1351.02 515.883 1355.09 518.816C1359.16 521.749 1364.22 521.664 1366.4 518.626Z" fill="#121212"/>
<path d="M1382.12 538.289C1384.29 535.25 1382.75 530.41 1378.68 527.477C1374.61 524.544 1369.55 524.629 1367.37 527.667C1365.2 530.705 1366.74 535.546 1370.81 538.479C1374.88 541.412 1379.94 541.327 1382.12 538.289Z" fill="#121212"/>
<path d="M856.169 478.605L955.52 640.585L978.954 624.113L871.186 473.042L856.169 478.605Z" fill="#121212"/>
<path d="M1084.89 614.17C1084.89 614.17 1134.9 615.082 1166.49 626.276C1190.14 634.647 1196.56 669.01 1165.25 688.575C1134.13 708.036 1075.11 717.378 1075.11 717.378L1084.89 614.17Z" fill="white"/>
<path d="M1075.11 719.636C1074.55 719.636 1073.99 719.419 1073.57 719.022C1073.06 718.543 1072.8 717.857 1072.87 717.162L1082.64 613.953C1082.75 612.779 1083.62 611.931 1084.93 611.908C1086.98 611.944 1135.67 612.956 1167.24 624.14C1179.04 628.317 1187.21 638.707 1188.58 651.251C1190.2 666.142 1181.92 680.808 1166.45 690.48C1135.29 709.96 1077.89 719.216 1075.46 719.6C1075.35 719.627 1075.23 719.636 1075.11 719.636ZM1086.92 616.487L1077.63 714.656C1089.79 712.497 1137.57 703.223 1164.07 686.656C1178.04 677.923 1185.54 664.874 1184.11 651.747C1182.93 640.942 1175.89 631.997 1165.74 628.403C1138.47 618.744 1096.68 616.816 1086.92 616.487Z" fill="#121212"/>
<path d="M1028.58 540.574C1028.58 540.574 1078.59 541.486 1110.18 552.68C1133.83 561.051 1140.25 595.413 1108.95 614.979C1077.82 634.44 1018.8 643.782 1018.8 643.782L1028.58 540.574Z" fill="white"/>
<path d="M1018.8 646.04C1018.23 646.04 1017.68 645.823 1017.26 645.426C1016.75 644.947 1016.49 644.261 1016.56 643.566L1026.34 540.357C1026.44 539.183 1027.28 538.348 1028.62 538.312C1030.68 538.348 1079.36 539.359 1110.93 550.544C1122.72 554.721 1130.9 565.106 1132.27 577.65C1133.89 592.542 1125.61 607.212 1110.14 616.884C1078.98 636.359 1021.58 645.62 1019.15 646.004C1019.03 646.031 1018.92 646.04 1018.8 646.04ZM1030.62 542.89L1021.32 641.06C1033.48 638.901 1081.26 629.627 1107.76 613.06C1121.73 604.322 1129.23 591.273 1127.79 578.147C1126.61 567.341 1119.58 558.396 1109.44 554.806C1082.16 545.144 1040.38 543.215 1030.62 542.89Z" fill="#121212"/>
<path d="M1112.51 685.956C1127.79 664.63 1122.28 634.616 1103.24 620.894C1097.97 617.096 1089.97 613.416 1083.08 612.626C1067.77 600.037 1071.6 598.321 1062.97 591.792C1065.29 576.778 1062.02 557.832 1047.75 547.55C1028.1 533.385 1003.14 537.029 985.778 561.272C973.575 578.313 971.968 601.36 971.968 601.36L936.515 650.867L910.929 665.79L986.534 778.652L1031.77 777.894L1075.11 717.383C1075.11 717.379 1092.49 713.915 1112.51 685.956Z" fill="#121212"/>
<path d="M1074.37 622.646C1072.52 613.425 1063.04 607.786 1055.14 605.772C1043.99 602.932 1037.19 603.898 1037.19 603.898L1025.46 665.398C1025.46 665.398 1046.72 662.693 1063.77 648.361C1072.53 641.001 1075.89 630.182 1074.37 622.646Z" fill="white"/>
<path d="M1025.47 667.66C1024.85 667.66 1024.25 667.407 1023.83 666.946C1023.34 666.418 1023.12 665.687 1023.26 664.978L1034.98 603.478C1035.16 602.534 1035.93 601.807 1036.88 601.667C1036.88 601.667 1044.07 600.62 1055.69 603.586C1064.04 605.713 1074.51 611.863 1076.59 622.203C1078.1 629.767 1075.19 641.719 1065.22 650.095C1047.87 664.684 1026.65 667.529 1025.75 667.642C1025.66 667.651 1025.56 667.66 1025.47 667.66ZM1039.08 606.02L1028.29 662.598C1034.69 661.261 1049.78 657.175 1062.33 646.632C1070.89 639.434 1073.44 629.383 1072.18 623.088C1070.52 614.807 1061.66 609.763 1054.59 607.957C1047.15 606.065 1041.66 605.925 1039.08 606.02Z" fill="#121212"/>
<path d="M1007.49 632.828C1005.64 623.607 996.154 617.968 988.254 615.954C977.113 613.114 970.311 614.08 970.311 614.08L958.581 675.579C958.581 675.579 979.836 672.875 996.892 658.543C1005.65 651.178 1009 640.359 1007.49 632.828Z" fill="white"/>
<path d="M958.581 677.837C957.964 677.837 957.365 677.584 956.942 677.124C956.451 676.595 956.235 675.864 956.37 675.155L968.097 613.655C968.277 612.712 969.046 611.985 969.992 611.845C969.996 611.845 977.176 610.797 988.808 613.764C997.153 615.891 1007.63 622.041 1009.7 632.381C1011.22 639.94 1008.3 651.892 998.337 660.272C980.975 674.862 959.765 677.702 958.864 677.819C958.77 677.833 958.675 677.837 958.581 677.837ZM972.197 616.202L961.412 672.78C967.813 671.443 982.897 667.357 995.447 656.814C1004.01 649.616 1006.55 639.565 1005.29 633.27C1003.64 624.989 994.781 619.941 987.709 618.139C980.277 616.247 974.808 616.103 972.197 616.202Z" fill="#121212"/>
<path d="M982.733 659.14C993.611 643.949 993.629 625.294 982.774 617.473C971.919 609.651 954.301 615.626 943.423 630.817C932.545 646.007 932.527 664.663 943.382 672.484C954.237 680.305 971.855 674.331 982.733 659.14Z" fill="white"/>
<path d="M954.538 678.185C949.884 678.185 945.572 676.849 942.065 674.32C936.209 670.103 932.99 663.031 932.999 654.416C933.008 646.081 936.06 637.231 941.592 629.505C949.42 618.573 960.926 611.782 971.612 611.782C976.267 611.782 980.579 613.118 984.086 615.642C995.929 624.181 996.14 644.288 984.554 660.462C976.726 671.398 965.225 678.185 954.538 678.185ZM971.612 616.302C962.348 616.302 952.247 622.37 945.252 632.142C940.264 639.109 937.51 647.02 937.501 654.425C937.492 661.546 940.044 667.312 944.694 670.658C947.467 672.658 950.784 673.674 954.543 673.674C963.807 673.674 973.908 667.606 980.903 657.834C991.04 643.678 991.292 626.403 981.461 619.318C978.684 617.313 975.371 616.302 971.612 616.302Z" fill="#121212"/>
<path d="M1049.61 648.954C1060.49 633.763 1060.51 615.108 1049.66 607.286C1038.8 599.465 1021.18 605.439 1010.31 620.63C999.427 635.821 999.409 654.476 1010.26 662.297C1021.12 670.119 1038.74 664.145 1049.61 648.954Z" fill="white"/>
<path d="M1021.42 668.007C1016.77 668.007 1012.45 666.671 1008.94 664.147C997.099 655.608 996.888 635.506 1008.47 619.327C1016.3 608.395 1027.81 601.604 1038.5 601.604C1043.15 601.604 1047.46 602.941 1050.97 605.465C1056.83 609.682 1060.05 616.753 1060.04 625.369C1060.03 633.708 1056.98 642.554 1051.44 650.28C1043.61 661.216 1032.11 668.007 1021.42 668.007ZM1038.5 606.119C1029.23 606.119 1019.13 612.188 1012.13 621.959C1002 636.115 1001.74 653.391 1011.58 660.476C1014.35 662.476 1017.67 663.487 1021.42 663.487C1030.69 663.487 1040.79 657.419 1047.78 647.647C1052.77 640.68 1055.53 632.769 1055.54 625.364C1055.55 618.243 1052.99 612.477 1048.34 609.131C1045.57 607.135 1042.25 606.119 1038.5 606.119Z" fill="#121212"/>
<path d="M1055.61 700.857C1053.76 691.636 1044.27 685.997 1036.37 683.983C1025.23 681.143 1018.43 682.109 1018.43 682.109L1006.7 743.609C1006.7 743.609 1027.95 740.904 1045.01 726.572C1053.77 719.212 1057.12 708.393 1055.61 700.857Z" fill="white"/>
<path d="M1006.7 745.871C1006.08 745.871 1005.49 745.618 1005.06 745.157C1004.57 744.629 1004.36 743.897 1004.49 743.189L1016.22 681.689C1016.4 680.745 1017.16 680.018 1018.11 679.878C1018.12 679.878 1025.3 678.831 1036.93 681.797C1045.27 683.924 1055.75 690.074 1057.82 700.414C1059.34 707.977 1056.42 719.93 1046.46 728.306C1029.1 742.895 1007.88 745.735 1006.98 745.853C1006.89 745.866 1006.79 745.871 1006.7 745.871ZM1020.31 684.236L1009.53 740.813C1015.93 739.477 1031.02 735.39 1043.56 724.847C1052.12 717.649 1054.67 707.598 1053.41 701.304C1051.75 693.023 1042.9 687.979 1035.82 686.173C1028.38 684.276 1022.9 684.141 1020.31 684.236Z" fill="#121212"/>
<path d="M1030.85 727.165C1041.73 711.974 1041.75 693.319 1030.89 685.497C1020.04 677.676 1002.42 683.65 991.541 698.841C980.663 714.032 980.645 732.687 991.5 740.508C1002.35 748.33 1019.97 742.356 1030.85 727.165Z" fill="white"/>
<path d="M1002.65 746.219C997.999 746.219 993.687 744.882 990.18 742.358C978.337 733.819 978.126 713.712 989.712 697.538C997.54 686.606 1009.05 679.815 1019.73 679.815C1024.39 679.815 1028.7 681.152 1032.21 683.68C1038.06 687.898 1041.28 694.969 1041.27 703.584C1041.26 711.92 1038.21 720.77 1032.68 728.496C1024.85 739.427 1013.34 746.219 1002.65 746.219ZM1019.73 684.331C1010.46 684.331 1000.36 690.399 993.367 700.171C983.23 714.326 982.978 731.602 992.809 738.687C995.582 740.687 998.9 741.699 1002.66 741.699C1011.92 741.699 1022.02 735.63 1029.02 725.859C1034.01 718.891 1036.76 710.98 1036.77 703.575C1036.78 696.454 1034.23 690.688 1029.58 687.342C1026.8 685.347 1023.49 684.331 1019.73 684.331Z" fill="#121212"/>
<path d="M1042.39 774.074L1075.13 766.52L1227.48 905.91L1212.83 916.503L1042.39 774.074Z" fill="#121212"/>
<path d="M1223.29 589.177L1238.14 473.118C1238.66 469.014 1235.51 465.713 1231.52 466.196L1210.08 468.797C1207.95 469.054 1206 470.373 1204.87 472.31L1140.45 582.323C1137.07 588.089 1138.05 595.187 1142.76 599.098L1154.28 608.67C1157.01 610.937 1160.64 611.813 1164.27 611.086L1211.95 601.55C1217.84 600.38 1222.52 595.278 1223.29 589.177Z" fill="white"/>
<path d="M1161.77 613.597C1158.49 613.597 1155.32 612.468 1152.85 610.413L1141.32 600.841C1135.74 596.204 1134.55 587.936 1138.51 581.181L1202.93 471.168C1204.42 468.621 1206.99 466.896 1209.8 466.553L1231.26 463.952C1233.99 463.614 1236.63 464.629 1238.38 466.625C1239.97 468.431 1240.69 470.906 1240.37 473.403L1225.53 589.462C1224.63 596.529 1219.22 602.408 1212.38 603.762L1164.71 613.299C1163.73 613.497 1162.75 613.597 1161.77 613.597ZM1232.3 468.404C1232.14 468.404 1231.97 468.413 1231.8 468.436L1210.35 471.037C1208.92 471.213 1207.59 472.116 1206.81 473.457L1142.38 583.466C1139.55 588.297 1140.32 594.14 1144.19 597.359L1155.71 606.932C1157.88 608.738 1160.89 609.461 1163.83 608.874L1211.51 599.337C1216.48 598.353 1220.4 594.059 1221.06 588.893L1235.91 472.829C1236.06 471.597 1235.75 470.454 1235.01 469.61C1234.32 468.833 1233.36 468.404 1232.3 468.404Z" fill="#121212"/>
</g>
<defs>
<clipPath id="clip0_22_37">
<rect width="1080.56" height="1133.33" fill="white" transform="translate(558.333 652.778)"/>
</clipPath>
<clipPath id="clip1_22_37">
<rect width="1333.33" height="1333.33" fill="white" transform="translate(1538.89 269.444)"/>
</clipPath>
<clipPath id="clip2_22_37">
<rect width="391.667" height="311.111" fill="white" transform="translate(795.493 1467.44) rotate(120.227)"/>
</clipPath>
<clipPath id="clip3_22_37">
<rect width="1377.78" height="822.222" fill="white" transform="matrix(0.914175 -0.405321 -0.405321 -0.914175 545.2 2699.49)"/>
</clipPath>
<clipPath id="clip4_22_37">
<rect width="1705.56" height="1500" fill="white" transform="matrix(-1 0 0 1 2750 1405.56)"/>
</clipPath>
<clipPath id="clip5_22_37">
<rect width="525" height="848.07" fill="white" transform="translate(732.356 1497.14) rotate(-147.885)"/>
</clipPath>
<clipPath id="clip6_22_37">
<rect width="602.778" height="463.889" fill="white" transform="translate(836.111 463.889)"/>
</clipPath>
</defs>
</svg>
